<svg width="40" height="40" viewBox="0 0 40 40" fill="none" xmlns="http://www.w3.org/2000/svg">
<path d="M20 23C19.6222 23 19.3056 22.8722 19.05 22.6167C18.7944 22.3611 18.6667 22.0444 18.6667 21.6667C18.6667 21.2889 18.7944 20.9722 19.05 20.7167C19.3056 20.4611 19.6222 20.3333 20 20.3333C20.3778 20.3333 20.6944 20.4611 20.95 20.7167C21.2056 20.9722 21.3333 21.2889 21.3333 21.6667C21.3333 22.0444 21.2056 22.3611 20.95 22.6167C20.6944 22.8722 20.3778 23 20 23ZM14.6667 23C14.2889 23 13.9722 22.8722 13.7167 22.6167C13.4611 22.3611 13.3333 22.0444 13.3333 21.6667C13.3333 21.2889 13.4611 20.9722 13.7167 20.7167C13.9722 20.4611 14.2889 20.3333 14.6667 20.3333C15.0444 20.3333 15.3611 20.4611 15.6167 20.7167C15.8722 20.9722 16 21.2889 16 21.6667C16 22.0444 15.8722 22.3611 15.6167 22.6167C15.3611 22.8722 15.0444 23 14.6667 23ZM25.3333 23C24.9556 23 24.6389 22.8722 24.3833 22.6167C24.1278 22.3611 24 22.0444 24 21.6667C24 21.2889 24.1278 20.9722 24.3833 20.7167C24.6389 20.4611 24.9556 20.3333 25.3333 20.3333C25.7111 20.3333 26.0278 20.4611 26.2833 20.7167C26.5389 20.9722 26.6667 21.2889 26.6667 21.6667C26.6667 22.0444 26.5389 22.3611 26.2833 22.6167C26.0278 22.8722 25.7111 23 25.3333 23ZM20 28.3333C19.6222 28.3333 19.3056 28.2056 19.05 27.95C18.7944 27.6944 18.6667 27.3778 18.6667 27C18.6667 26.6222 18.7944 26.3056 19.05 26.05C19.3056 25.7944 19.6222 25.6667 20 25.6667C20.3778 25.6667 20.6944 25.7944 20.95 26.05C21.2056 26.3056 21.3333 26.6222 21.3333 27C21.3333 27.3778 21.2056 27.6944 20.95 27.95C20.6944 28.2056 20.3778 28.3333 20 28.3333ZM14.6667 28.3333C14.2889 28.3333 13.9722 28.2056 13.7167 27.95C13.4611 27.6944 13.3333 27.3778 13.3333 27C13.3333 26.6222 13.4611 26.3056 13.7167 26.05C13.9722 25.7944 14.2889 25.6667 14.6667 25.6667C15.0444 25.6667 15.3611 25.7944 15.6167 26.05C15.8722 26.3056 16 26.6222 16 27C16 27.3778 15.8722 27.6944 15.6167 27.95C15.3611 28.2056 15.0444 28.3333 14.6667 28.3333ZM25.3333 28.3333C24.9556 28.3333 24.6389 28.2056 24.3833 27.95C24.1278 27.6944 24 27.3778 24 27C24 26.6222 24.1278 26.3056 24.3833 26.05C24.6389 25.7944 24.9556 25.6667 25.3333 25.6667C25.7111 25.6667 26.0278 25.7944 26.2833 26.05C26.5389 26.3056 26.6667 26.6222 26.6667 27C26.6667 27.3778 26.5389 27.6944 26.2833 27.95C26.0278 28.2056 25.7111 28.3333 25.3333 28.3333ZM10 33.6667C9.46667 33.6667 9 33.4667 8.6 33.0667C8.2 32.6667 8 32.2 8 31.6667V11C8 10.4667 8.2 10 8.6 9.6C9 9.2 9.46667 9 10 9H12.1667V7H14.3333V9H25.6667V7H27.8333V9H30C30.5333 9 31 9.2 31.4 9.6C31.8 10 32 10.4667 32 11V31.6667C32 32.2 31.8 32.6667 31.4 33.0667C31 33.4667 30.5333 33.6667 30 33.6667H10ZM10 31.6667H30V17.3333H10V31.6667Z" fill="#222222"/>
</svg>
