<svg width="40" height="40" viewBox="0 0 40 40" fill="none" xmlns="http://www.w3.org/2000/svg">
<path d="M18.0667 34.3333V31.6667H10C9.46667 31.6667 9 31.4667 8.6 31.0667C8.2 30.6667 8 30.2 8 29.6667V9.66667C8 9.13333 8.2 8.66667 8.6 8.26667C9 7.86667 9.46667 7.66667 10 7.66667H18.0667V5H20.0667V34.3333H18.0667ZM10 28.2667H18.0667V19.0333L10 28.2667ZM22.0667 31.6667V19.1667L30 28.2667V9.66667H22.0667V7.66667H30C30.5333 7.66667 31 7.86667 31.4 8.26667C31.8 8.66667 32 9.13333 32 9.66667V29.6667C32 30.2 31.8 30.6667 31.4 31.0667C31 31.4667 30.5333 31.6667 30 31.6667H22.0667Z" fill="#222222"/>
</svg>
