<svg width="40" height="40" viewBox="0 0 40 40" fill="none" xmlns="http://www.w3.org/2000/svg">
<path d="M8.21053 29.1579C7.60263 29.1579 7.08224 28.9414 6.64934 28.5086C6.21645 28.0757 6 27.5553 6 26.9474V12.2105C6 11.6026 6.21645 11.0822 6.64934 10.6493C7.08224 10.2164 7.60263 10 8.21053 10H31.7895C32.3974 10 32.9178 10.2164 33.3507 10.6493C33.7836 11.0822 34 11.6026 34 12.2105V26.9474C34 27.5553 33.7836 28.0757 33.3507 28.5086C32.9178 28.9414 32.3974 29.1579 31.7895 29.1579H8.21053ZM11.8947 26.9474C11.8947 25.9158 11.5386 25.0439 10.8263 24.3316C10.114 23.6193 9.24211 23.2632 8.21053 23.2632V26.9474H11.8947ZM28.1053 26.9474H31.7895V23.2632C30.7579 23.2632 29.886 23.6193 29.1737 24.3316C28.4614 25.0439 28.1053 25.9158 28.1053 26.9474ZM20 24C21.2281 24 22.2719 23.5702 23.1316 22.7105C23.9912 21.8509 24.4211 20.807 24.4211 19.5789C24.4211 18.3509 23.9912 17.307 23.1316 16.4474C22.2719 15.5877 21.2281 15.1579 20 15.1579C18.7719 15.1579 17.7281 15.5877 16.8684 16.4474C16.0088 17.307 15.5789 18.3509 15.5789 19.5789C15.5789 20.807 16.0088 21.8509 16.8684 22.7105C17.7281 23.5702 18.7719 24 20 24ZM8.21053 15.8947C9.24211 15.8947 10.114 15.5386 10.8263 14.8263C11.5386 14.114 11.8947 13.2421 11.8947 12.2105H8.21053V15.8947ZM31.7895 15.8947V12.2105H28.1053C28.1053 13.2421 28.4614 14.114 29.1737 14.8263C29.886 15.5386 30.7579 15.8947 31.7895 15.8947Z" fill="#222222"/>
</svg>
