<svg width="40" height="40" viewBox="0 0 40 40" fill="none" xmlns="http://www.w3.org/2000/svg">
<path d="M24.1317 31.0329H25.4486V26.0947H24.1317V31.0329ZM24.7901 24.8107C24.9657 24.8107 25.1193 24.7432 25.251 24.6082C25.3827 24.4732 25.4486 24.3158 25.4486 24.1358C25.4486 23.9558 25.3827 23.7984 25.251 23.6634C25.1193 23.5284 24.9657 23.4609 24.7901 23.4609C24.5926 23.4609 24.4335 23.5267 24.3128 23.6584C24.192 23.7901 24.1317 23.9469 24.1317 24.1288C24.1317 24.3106 24.192 24.4697 24.3128 24.6061C24.4335 24.7425 24.5926 24.8107 24.7901 24.8107ZM25.6132 33.3045C23.8461 33.3045 22.3399 32.6818 21.0945 31.4364C19.8491 30.1909 19.2263 28.6847 19.2263 26.9177C19.2263 25.1507 19.8491 23.6444 21.0945 22.399C22.3399 21.1536 23.8461 20.5309 25.6132 20.5309C27.3802 20.5309 28.8864 21.1536 30.1319 22.399C31.3773 23.6444 32 25.1507 32 26.9177C32 28.6847 31.3773 30.1909 30.1319 31.4364C28.8864 32.6818 27.3802 33.3045 25.6132 33.3045ZM20.8724 15.0988H27.0947L20.8724 8.97531V15.0988ZM9.97531 33.3374C9.4321 33.3374 8.96708 33.144 8.58025 32.7572C8.19342 32.3704 8 31.9053 8 31.3621V8.97531C8 8.4321 8.19342 7.96708 8.58025 7.58025C8.96708 7.19342 9.4321 7 9.97531 7H21.8601L29.07 14.2099V19.3128C28.5213 19.0713 27.9543 18.8848 27.369 18.7531C26.7837 18.6214 26.1985 18.5556 25.6132 18.5556C24.6914 18.5556 23.8134 18.6982 22.9794 18.9835C22.1454 19.2689 21.3772 19.6639 20.6749 20.1687H13.2346V22.144H18.7325C18.3594 22.6708 18.0587 23.2436 17.8305 23.8625C17.6022 24.4813 17.431 25.1156 17.3169 25.7654H13.2346V27.7407H17.284C17.3937 28.8381 17.7064 29.8697 18.2222 30.8354C18.738 31.8011 19.4129 32.6351 20.2469 33.3374H9.97531Z" fill="#222222"/>
</svg>
