<svg width="40" height="40" viewBox="0 0 40 40" fill="none" xmlns="http://www.w3.org/2000/svg">
<path d="M17 35C16.175 35 15.4687 34.7062 14.8812 34.1187C14.2937 33.5312 14 32.825 14 32H20C20 32.825 19.7062 33.5312 19.1187 34.1187C18.5312 34.7062 17.825 35 17 35ZM27.875 21.5C26.3715 21.2056 25.5232 20.6403 24.5 19.5C23.6542 18.5574 23.2468 17.8671 23 16.625C22.8287 15.7632 22.8312 15.2373 23 14.375C23.2944 12.8715 23.8597 12.0232 25 11C25.9426 10.1542 26.6329 9.74682 27.875 9.5C28.7368 9.32874 29.2627 9.33117 30.125 9.5C31.6285 9.79437 32.4768 10.3597 33.5 11.5C34.3458 12.4426 34.7532 13.1329 35 14.375C35.1713 15.2368 35.1688 15.7627 35 16.625C34.7056 18.1285 34.1403 18.9768 33 20C32.0574 20.8458 31.3671 21.2532 30.125 21.5C29.2632 21.6713 28.7373 21.6688 27.875 21.5ZM5 30.5V28.25H8.15V16.775C8.15 14.725 8.76875 12.8687 10.0062 11.2062C11.2437 9.54375 12.875 8.5 14.9 8.075V6.9875C14.9 6.4125 15.1062 5.9375 15.5187 5.5625C15.9312 5.1875 16.425 5 17 5C17.575 5 18.0687 5.1875 18.4812 5.5625C18.8938 5.9375 19.1 6.4125 19.1 6.9875V8.075C19.65 8.175 20.225 8.36875 20.825 8.65625C21.425 8.94375 21.9 9.2375 22.25 9.5375C21.525 10.4125 20.975 11.3312 20.6 12.2937C20.225 13.2562 20.0375 14.325 20.0375 15.5C20.0375 17.55 20.5625 19.275 21.6125 20.675C22.6625 22.075 24.0875 23.1625 25.8875 23.9375V28.25H29V30.5H5Z" fill="#222222"/>
<path d="M36 15.5C36 19.366 32.866 22.5 29 22.5C25.134 22.5 22 19.366 22 15.5C22 11.634 25.134 8.5 29 8.5C32.866 8.5 36 11.634 36 15.5Z" fill="#FA3E3E"/>
</svg>
