<svg width="40" height="40" viewBox="0 0 40 40" fill="none" xmlns="http://www.w3.org/2000/svg">
<path d="M8 30.5V28.25H11.15V16.775C11.15 14.675 11.7688 12.8063 13.0063 11.1688C14.2438 9.53125 15.875 8.5 17.9 8.075V6.9875C17.9 6.4125 18.1063 5.9375 18.5188 5.5625C18.9313 5.1875 19.425 5 20 5C20.575 5 21.0688 5.1875 21.4813 5.5625C21.8938 5.9375 22.1 6.4125 22.1 6.9875V8.075C24.125 8.5 25.7625 9.53125 27.0125 11.1688C28.2625 12.8063 28.8875 14.675 28.8875 16.775V28.25H32V30.5H8ZM20 35C19.2 35 18.5 34.7063 17.9 34.1188C17.3 33.5313 17 32.825 17 32H23C23 32.825 22.7063 33.5313 22.1188 34.1188C21.5313 34.7063 20.825 35 20 35Z" fill="#222222"/>
</svg>
