<svg width="40" height="40" viewBox="0 0 40 40" fill="none" xmlns="http://www.w3.org/2000/svg">
<path d="M24.7333 22.1333C25.2889 22.1333 25.7833 21.9167 26.2167 21.4833C26.65 21.05 26.8667 20.5444 26.8667 19.9667C26.8667 19.4111 26.65 18.9222 26.2167 18.5C25.7833 18.0778 25.2889 17.8667 24.7333 17.8667C24.1778 17.8667 23.6833 18.0778 23.25 18.5C22.8167 18.9222 22.6 19.4111 22.6 19.9667C22.6 20.5444 22.8167 21.05 23.25 21.4833C23.6833 21.9167 24.1778 22.1333 24.7333 22.1333ZM20.9333 26.2333C20.1778 26.2333 19.5778 26.0111 19.1333 25.5667C18.6889 25.1222 18.4667 24.5333 18.4667 23.8V16.2333C18.4667 15.4778 18.6889 14.8833 19.1333 14.45C19.5778 14.0167 20.1778 13.8 20.9333 13.8H29.9C30.6556 13.8 31.2556 14.0167 31.7 14.45C32.1444 14.8833 32.3667 15.4778 32.3667 16.2333V23.8C32.3667 24.5333 32.1444 25.1222 31.7 25.5667C31.2556 26.0111 30.6556 26.2333 29.9 26.2333H20.9333ZM9 32C8.48889 32 8.02778 31.8 7.61667 31.4C7.20556 31 7 30.5333 7 30V10C7 9.48889 7.20556 9.02778 7.61667 8.61667C8.02778 8.20556 8.48889 8 9 8H29C29.5333 8 30 8.20556 30.4 8.61667C30.8 9.02778 31 9.48889 31 10V11.8H20.9333C19.6444 11.8 18.5778 12.2222 17.7333 13.0667C16.8889 13.9111 16.4667 14.9667 16.4667 16.2333V23.8C16.4667 25.0667 16.8889 26.1222 17.7333 26.9667C18.5778 27.8111 19.6444 28.2333 20.9333 28.2333H31V30C31 30.5333 30.8 31 30.4 31.4C30 31.8 29.5333 32 29 32H9Z" fill="#222222"/>
</svg>
