<svg width="40" height="40" viewBox="0 0 40 40" fill="none" xmlns="http://www.w3.org/2000/svg">
<path d="M10.9375 35C9.84375 35 8.91406 34.6172 8.14844 33.8516C7.38281 33.0859 7 32.1563 7 31.0625V26H11.5V5H34V31.0625C34 32.1563 33.6172 33.0859 32.8516 33.8516C32.0859 34.6172 31.1562 35 30.0625 35H10.9375ZM30.0592 32.75C30.5364 32.75 30.9375 32.5883 31.2625 32.2648C31.5875 31.9414 31.75 31.5406 31.75 31.0625V7.25H13.75V26H28.375V31.0625C28.375 31.5406 28.5364 31.9414 28.8592 32.2648C29.182 32.5883 29.582 32.75 30.0592 32.75ZM16 14V11.75H29.5V14H16ZM16 18.5V16.25H29.5V18.5H16Z" fill="#222222"/>
</svg>
