<svg width="40" height="40" viewBox="0 0 40 40" fill="none" xmlns="http://www.w3.org/2000/svg">
<path d="M30.5333 32L21.7667 23.2333C21.1 23.8111 20.3227 24.2611 19.4347 24.5833C18.5467 24.9056 17.6018 25.0667 16.6 25.0667C14.1964 25.0667 12.1622 24.2333 10.4973 22.5667C8.83243 20.9 8 18.8889 8 16.5333C8 14.1778 8.83333 12.1667 10.5 10.5C12.1667 8.83333 14.1833 8 16.55 8C18.9167 8 20.9278 8.83333 22.5833 10.5C24.2389 12.1667 25.0667 14.1794 25.0667 16.5383C25.0667 17.4906 24.9111 18.4111 24.6 19.3C24.2889 20.1889 23.8222 21.0222 23.2 21.8L32 30.5333L30.5333 32ZM16.5667 23.0667C18.3722 23.0667 19.9069 22.4278 21.1708 21.15C22.4347 19.8722 23.0667 18.3333 23.0667 16.5333C23.0667 14.7333 22.4347 13.1944 21.1708 11.9167C19.9069 10.6389 18.3722 10 16.5667 10C14.7426 10 13.1921 10.6389 11.9153 11.9167C10.6384 13.1944 10 14.7333 10 16.5333C10 18.3333 10.6384 19.8722 11.9153 21.15C13.1921 22.4278 14.7426 23.0667 16.5667 23.0667Z" fill="#222222"/>
</svg>
