<svg width="40" height="40" viewBox="0 0 40 40" fill="none" xmlns="http://www.w3.org/2000/svg">
<path d="M21.0781 18.9219V8C23.9764 8.18851 26.4566 9.33726 28.5184 11.4462C30.5803 13.5552 31.7408 16.0471 32 18.9219H21.0781ZM18.9573 31.9647C15.8704 31.7055 13.2725 30.4212 11.1635 28.1119C9.05449 25.8027 8 23.0928 8 19.9823C8 16.8719 9.05449 14.162 11.1635 11.8527C13.2725 9.54345 15.8704 8.2592 18.9573 8V31.9647ZM21.0781 31.9647V21.0427H32C31.7408 23.9175 30.5803 26.4094 28.5184 28.5184C26.4566 30.6274 23.9764 31.7761 21.0781 31.9647Z" fill="#222222"/>
</svg>
