<svg width="40" height="40" viewBox="0 0 40 40" fill="none" xmlns="http://www.w3.org/2000/svg">
<path d="M9.95228 19.6318C10.2923 17.2686 12.6562 16.6337 12.885 14.4775C11.8178 14.9512 10.5414 14.8023 9.60648 14.0293C8.57055 15.8963 8.51462 17.7306 9.95228 19.6318Z" fill="#222222"/>
<path d="M14.521 12.785C15.7305 12.6063 16.765 11.7585 17.7551 10.9216C19.126 9.76291 21.0329 8.33324 22.8505 8.472C19.6018 7.46949 16.0879 8.18214 13.9427 9.50212C14.7672 10.4167 14.9597 11.6989 14.521 12.785Z" fill="#222222"/>
<path d="M30.0476 20.3679C29.7076 22.7303 27.343 23.366 27.1149 25.5221C28.1814 25.0477 29.4585 25.1967 30.3934 25.9703C31.4293 24.1019 31.4853 22.269 30.0476 20.3679Z" fill="#222222"/>
<path d="M25.479 27.2145C24.2695 27.3932 23.235 28.241 22.2441 29.0778C20.874 30.2358 18.967 31.6662 17.1494 31.5282C20.3982 32.5307 23.912 31.8173 26.0573 30.4973C25.2327 29.5827 25.0402 28.2998 25.479 27.2145Z" fill="#222222"/>
<path d="M20.3684 9.95194C22.7309 10.2919 23.3665 12.6565 25.5219 12.8847C25.0476 11.8182 25.1972 10.5411 25.9702 9.60688C24.1024 8.57022 22.2689 8.51501 20.3684 9.95194Z" fill="#222222"/>
<path d="M27.2145 14.5205C27.3939 15.7301 28.241 16.7645 29.0779 17.7554C30.2366 19.1263 31.6662 21.0332 31.5282 22.8501C32.5307 19.6014 31.8173 16.0882 30.4974 13.9423C29.5828 14.7668 28.3013 14.96 27.2145 14.5205Z" fill="#222222"/>
<path d="M19.6317 30.0477C17.2692 29.7077 16.6336 27.3431 14.4775 27.1142C14.9518 28.1814 14.8029 29.4585 14.03 30.3935C15.8977 31.4301 17.7313 31.4853 19.6317 30.0477Z" fill="#222222"/>
<path d="M12.7855 25.479C12.6061 24.2687 11.759 23.2343 10.9214 22.2441C9.76346 20.874 8.33379 18.967 8.47182 17.1494C7.4693 20.3982 8.18269 23.912 9.50266 26.0573C10.4173 25.2327 11.6995 25.0395 12.7855 25.479Z" fill="#222222"/>
<path d="M30.2513 9.74777C31.2546 10.751 31.2546 12.3776 30.2513 13.3808C29.2488 14.384 27.6223 14.384 26.619 13.3808C25.6158 12.3776 25.6158 10.751 26.619 9.74777C27.6223 8.74453 29.2488 8.74453 30.2513 9.74777Z" fill="#222222"/>
<path d="M13.3809 26.6193C14.3835 27.6226 14.3835 29.2484 13.3809 30.2516C12.3777 31.2541 10.7512 31.2541 9.74793 30.2516C8.74541 29.2484 8.74541 27.6226 9.74793 26.6193C10.7512 25.6161 12.3777 25.6161 13.3809 26.6193Z" fill="#222222"/>
<path d="M30.2513 30.2516C29.2488 31.2541 27.6223 31.2541 26.619 30.2516C25.6158 29.2484 25.6158 27.6226 26.619 26.6193C27.6223 25.6161 29.2488 25.6161 30.2513 26.6193C31.2546 27.6226 31.2546 29.2484 30.2513 30.2516Z" fill="#222222"/>
<path d="M13.3809 13.381C12.3777 14.3835 10.7512 14.3835 9.74793 13.381C8.74541 12.3777 8.74541 10.7504 9.74793 9.74794C10.7512 8.7447 12.3777 8.7447 13.3809 9.74794C14.3835 10.7504 14.3835 12.3777 13.3809 13.381Z" fill="#222222"/>
<path d="M18.9062 22.1648V23.0686H21.0936V21.0933L22.9744 22.9109C23.1327 23.062 23.1197 23.1463 23.1219 23.2865V23.9076C23.1219 23.9163 23.1211 23.9258 23.1211 23.9352V23.9432C23.1204 23.9498 23.1204 23.957 23.1204 23.9643L23.1197 23.9715C23.1189 23.9803 23.1189 23.9897 23.1182 23.9984L23.1175 24.0006C23.1175 24.0093 23.1168 24.0173 23.1153 24.0253L23.1146 24.034C23.1139 24.0406 23.1131 24.0471 23.1124 24.0544L23.1117 24.0602C23.1102 24.0696 23.1095 24.0783 23.108 24.0863L23.1073 24.0929C23.1059 24.1001 23.1044 24.1067 23.1037 24.1139L23.1022 24.1212C23.1008 24.1285 23.0993 24.135 23.0986 24.1423L23.0972 24.1488C23.095 24.1568 23.0935 24.1655 23.0913 24.1735L23.0899 24.18C23.0884 24.1866 23.087 24.1938 23.0848 24.2004L23.0826 24.2076C23.0812 24.2149 23.079 24.2229 23.0768 24.2309L23.0761 24.2331C23.0739 24.2418 23.0717 24.2498 23.0688 24.2578L23.0666 24.2658C23.0645 24.2716 23.0623 24.2781 23.0608 24.2839L23.0579 24.2912C23.055 24.2992 23.0521 24.3064 23.0499 24.3137L23.0478 24.3195C23.0456 24.3253 23.0427 24.3333 23.0398 24.3399L23.0369 24.3479C23.0347 24.3544 23.0325 24.3595 23.0296 24.3653L23.0274 24.3726C23.0238 24.3798 23.0201 24.3878 23.0165 24.3951L23.0151 24.4009C23.0114 24.4067 23.0093 24.4132 23.0063 24.419L23.002 24.427C22.9991 24.4321 22.9962 24.4379 22.994 24.4437L22.9904 24.4503C22.9867 24.4575 22.9831 24.4648 22.9787 24.4721L22.9751 24.4793C22.9722 24.4844 22.9693 24.4895 22.9664 24.4946L22.9613 24.5033C22.9584 24.5084 22.9555 24.5128 22.9526 24.5178L22.9482 24.5258C22.9446 24.5316 22.9402 24.5389 22.9359 24.5454L22.9301 24.5542C22.9272 24.5585 22.925 24.5622 22.9221 24.5665L22.9155 24.576C22.9126 24.5803 22.9097 24.5847 22.9061 24.589L22.8996 24.5992C22.8952 24.605 22.8916 24.6101 22.8872 24.6152L22.8807 24.6246C22.8785 24.6275 22.8749 24.6319 22.8727 24.6355L22.8654 24.6442C22.8618 24.6486 22.8574 24.6537 22.8538 24.6588C22.8509 24.6617 22.848 24.666 22.8451 24.6697C22.8414 24.6733 22.8385 24.6769 22.8349 24.682L22.8276 24.6907C22.824 24.6936 22.8211 24.6973 22.8175 24.7002C22.8153 24.7038 22.8124 24.7067 22.8102 24.7096C22.8058 24.714 22.8015 24.7183 22.7971 24.7234C22.7935 24.7271 22.7899 24.7307 22.7862 24.7343C22.784 24.7372 22.7811 24.7409 22.7775 24.743L22.7688 24.7525L22.7593 24.7619C22.7564 24.7641 22.7535 24.767 22.7506 24.7699C22.7455 24.775 22.7397 24.7801 22.7346 24.7845C22.7317 24.7874 22.7281 24.791 22.7252 24.7932C22.7216 24.7961 22.7187 24.799 22.7158 24.8019L22.7063 24.8099L22.6969 24.8186C22.6911 24.8237 22.6845 24.828 22.6787 24.8331L22.67 24.8397C22.6664 24.8426 22.6635 24.8455 22.6598 24.8484L22.6504 24.8556C22.6467 24.8578 22.6431 24.86 22.6395 24.8629C22.6366 24.8651 22.6337 24.8673 22.6308 24.8694C22.6235 24.8745 22.617 24.8796 22.609 24.8847L22.6017 24.8898C22.5981 24.8927 22.5937 24.8956 22.5894 24.8978L22.5814 24.9036C22.577 24.9058 22.5726 24.9087 22.569 24.9116L22.5603 24.9167C22.5538 24.921 22.5465 24.9254 22.5392 24.929L22.5298 24.9356C22.5254 24.9385 22.5211 24.9399 22.5174 24.9428L22.508 24.9479C22.5036 24.9501 22.4993 24.9523 22.4956 24.9544L22.4906 24.9573C22.4811 24.9617 22.4731 24.9668 22.4637 24.9704L22.4542 24.9762L22.4419 24.982C22.4383 24.9835 22.4346 24.985 22.431 24.9871C22.2792 25.0569 22.1106 25.0954 21.9326 25.0954H18.9062V25.9991L16.9717 24.082L18.9062 22.1648ZM21.0936 18.906H23.0688V21.0933H22.1651L24.0822 23.0286L25.9994 21.0933H25.0956V18.0669C25.0956 17.8889 25.0571 17.7204 24.9867 17.5685C24.9852 17.5649 24.983 17.5613 24.9816 17.5576L24.9758 17.5453L24.9707 17.5359C24.9663 17.5271 24.962 17.5184 24.9576 17.5097L24.9547 17.5046C24.9525 17.5003 24.9503 17.4959 24.9474 17.4915L24.9424 17.4821C24.9402 17.4785 24.938 17.4741 24.9358 17.4712L24.93 17.4603C24.9256 17.453 24.9213 17.4458 24.9169 17.4392L24.9118 17.4312C24.9089 17.4262 24.906 17.4225 24.9031 17.4182L24.898 17.4102C24.8951 17.4058 24.893 17.4015 24.8901 17.3978L24.885 17.3906C24.8799 17.3826 24.8748 17.376 24.8697 17.3688C24.8675 17.3666 24.8654 17.363 24.8632 17.3608C24.861 17.3571 24.8581 17.3535 24.8552 17.3499L24.8479 17.3397C24.845 17.3361 24.8428 17.3332 24.8399 17.3295L24.8327 17.3215C24.8283 17.315 24.8232 17.3085 24.8181 17.3034L24.8021 17.2845C24.7992 17.2809 24.7963 17.278 24.7934 17.2751C24.7905 17.2714 24.7876 17.2678 24.7847 17.2656C24.7796 17.2605 24.7753 17.254 24.7702 17.2489C24.7673 17.2467 24.7644 17.2431 24.7615 17.2402L24.7433 17.222C24.7404 17.2184 24.7375 17.2162 24.7339 17.2133C24.7302 17.2097 24.7273 17.206 24.7237 17.2031C24.7193 17.1988 24.7142 17.1937 24.7099 17.1893C24.7063 17.1872 24.7034 17.1842 24.7012 17.1821C24.6968 17.1784 24.6939 17.1755 24.6903 17.1726L24.6816 17.1654C24.6772 17.1617 24.6736 17.1581 24.6692 17.1552C24.6656 17.1516 24.6627 17.1487 24.659 17.1457C24.654 17.1414 24.6489 17.1385 24.6445 17.1341L24.6358 17.1276C24.6322 17.124 24.6278 17.121 24.6242 17.1189L24.6154 17.1116C24.6104 17.108 24.6046 17.1036 24.5995 17.1007L24.5893 17.0934C24.5849 17.0905 24.5806 17.0869 24.5762 17.084L24.566 17.0782C24.5624 17.0753 24.5588 17.0724 24.5544 17.0702L24.545 17.0637C24.5384 17.06 24.5319 17.0549 24.5254 17.0513L24.5181 17.0469C24.513 17.044 24.5087 17.0419 24.5036 17.0382L24.4949 17.0331C24.4898 17.031 24.4847 17.0273 24.4796 17.0252L24.4716 17.0208C24.4651 17.0172 24.4578 17.0128 24.4505 17.0099L24.444 17.0063C24.4382 17.0026 24.4324 16.9997 24.4266 16.9975L24.4193 16.9939C24.4128 16.991 24.407 16.9881 24.4011 16.9852L24.3961 16.983C24.3881 16.9794 24.3801 16.9765 24.3728 16.9728L24.3655 16.9692C24.3597 16.967 24.3539 16.9656 24.3481 16.9627L24.3401 16.959C24.3336 16.9569 24.3263 16.954 24.3198 16.9511L24.314 16.9496C24.3067 16.9467 24.2994 16.9445 24.2915 16.9416L24.2835 16.9387C24.2776 16.9373 24.2718 16.9351 24.266 16.9336L24.2588 16.9314C24.25 16.9285 24.2413 16.9256 24.2333 16.9234H24.2312C24.2232 16.9205 24.2152 16.9184 24.2079 16.9169L24.2006 16.9147C24.1934 16.9126 24.1868 16.9118 24.1796 16.9096L24.1745 16.9082C24.1658 16.9067 24.1571 16.9046 24.1483 16.9031L24.1425 16.9017C24.1353 16.9002 24.1287 16.8987 24.1222 16.8973L24.1135 16.8958C24.1069 16.8951 24.1004 16.8937 24.0931 16.8922L24.0873 16.8915C24.0779 16.89 24.0692 16.8886 24.0604 16.8879L24.0546 16.8871C24.0481 16.8864 24.0401 16.8857 24.0336 16.8857L24.0256 16.8842C24.0176 16.8835 24.0096 16.8828 24.0009 16.882H23.9987C23.9892 16.8813 23.9798 16.8806 23.9711 16.8799L23.9638 16.8791C23.9573 16.8791 23.95 16.8784 23.9435 16.8784H23.9348C23.926 16.8784 23.9166 16.8784 23.9079 16.8784H23.2868C23.1458 16.8799 23.0623 16.8668 22.9112 17.0252L21.0936 18.906ZM18.9062 21.0933H16.9317V18.906H17.8347L15.9176 16.9714L14.0004 18.906H14.9042V21.9324C14.9042 22.1111 14.9434 22.2796 15.0131 22.4315C15.0146 22.4344 15.0168 22.438 15.0182 22.4416L15.024 22.4547L15.0291 22.4641C15.0335 22.4721 15.0378 22.4816 15.0422 22.4903L15.0451 22.4947C15.0473 22.4997 15.0502 22.5041 15.0524 22.5077L15.0574 22.5172C15.0596 22.5215 15.0618 22.5252 15.0647 22.5295L15.0705 22.5397C15.0741 22.547 15.0785 22.5542 15.0836 22.5608L15.0887 22.5688C15.0909 22.5724 15.0938 22.5767 15.0967 22.5811L15.1018 22.5898C15.1047 22.5935 15.1076 22.5978 15.1105 22.6014L15.1156 22.6094C15.1199 22.6167 15.125 22.6232 15.1301 22.6305C15.1323 22.6334 15.1344 22.6363 15.1366 22.6392C15.1395 22.6429 15.1417 22.6465 15.1446 22.6501L15.1519 22.6596C15.1548 22.6625 15.157 22.6661 15.1599 22.6697L15.1671 22.6784C15.1715 22.6843 15.1766 22.6908 15.1824 22.6973L15.1897 22.7061L15.1984 22.7155C15.2013 22.7191 15.2035 22.7213 15.2064 22.7257C15.2093 22.7278 15.2122 22.7315 15.2151 22.7344C15.2194 22.7402 15.2245 22.7453 15.2296 22.7504C15.2325 22.7533 15.2354 22.7562 15.2383 22.7591L15.2565 22.7772C15.2594 22.7809 15.263 22.7838 15.2659 22.7867C15.2696 22.7903 15.2725 22.794 15.2768 22.7969C15.2812 22.8012 15.2855 22.8056 15.2906 22.8099C15.2935 22.8121 15.2964 22.815 15.2994 22.8179C15.303 22.8208 15.3059 22.8245 15.3095 22.8274L15.3182 22.8346C15.3219 22.8375 15.3262 22.8412 15.3306 22.8441C15.3342 22.8477 15.3379 22.8506 15.3415 22.8535C15.3458 22.8572 15.3509 22.8615 15.356 22.8651L15.3647 22.8724C15.3684 22.8746 15.372 22.8782 15.3756 22.8811L15.3843 22.8877C15.3902 22.8913 15.3952 22.8957 15.4003 22.8993L15.4105 22.9058C15.4149 22.9095 15.4199 22.9124 15.4236 22.9153L15.4337 22.9218C15.4374 22.9247 15.4417 22.9269 15.4454 22.9298L15.4548 22.9356C15.4614 22.94 15.4679 22.9443 15.4744 22.948L15.4817 22.9523C15.4868 22.9552 15.4919 22.9581 15.4962 22.961L15.5049 22.9661C15.51 22.969 15.5158 22.9719 15.5202 22.9748L15.5282 22.9785C15.5347 22.9821 15.542 22.9865 15.5493 22.9894L15.5565 22.9937C15.5616 22.9966 15.5674 22.9995 15.5732 23.0024L15.5805 23.0061C15.587 23.009 15.5928 23.0112 15.5994 23.0141L15.6045 23.0163C15.6125 23.0206 15.6197 23.0235 15.6277 23.0272L15.635 23.0301C15.6401 23.0322 15.6459 23.0344 15.6517 23.0366L15.6597 23.0402C15.6669 23.0431 15.6735 23.0453 15.6807 23.0482L15.6858 23.0497C15.6938 23.0526 15.7004 23.0555 15.7083 23.0577L15.7163 23.0606C15.7221 23.062 15.728 23.0642 15.7338 23.0664L15.7418 23.0686C15.7498 23.0715 15.7585 23.0736 15.7665 23.0765H15.7694C15.7766 23.0787 15.7846 23.0809 15.7919 23.0831L15.7992 23.0853C15.8064 23.0867 15.813 23.0882 15.8202 23.0896L15.826 23.0911C15.8348 23.0933 15.8427 23.0954 15.8515 23.0969L15.858 23.0976C15.8645 23.0998 15.8711 23.1005 15.8783 23.102L15.8863 23.1034C15.8936 23.1049 15.8994 23.1056 15.9067 23.1071L15.9132 23.1078C15.9212 23.1092 15.9306 23.11 15.9394 23.1114L15.9452 23.1121C15.9524 23.1129 15.9597 23.1136 15.9662 23.1151L15.9742 23.1158C15.9822 23.1158 15.9902 23.1172 15.9989 23.118H16.0011C16.0106 23.1187 16.02 23.1194 16.0287 23.1194H16.036C16.0432 23.1209 16.0498 23.1209 16.057 23.1209H16.7138C16.854 23.1194 16.9375 23.1332 17.0893 22.9748L18.9062 21.0933ZM18.9062 18.9052L17.0254 17.0891C16.867 16.9373 16.8801 16.8537 16.8787 16.7128V16.0917C16.8787 16.0829 16.8787 16.0742 16.8787 16.0648V16.0568C16.8794 16.0495 16.8794 16.043 16.8801 16.0364V16.0292C16.8809 16.0197 16.8816 16.0096 16.8816 16.0016L16.8823 15.9987C16.883 15.99 16.8838 15.9827 16.8845 15.974L16.8852 15.9667C16.8859 15.9594 16.8867 15.9522 16.8874 15.9456L16.8888 15.9391C16.8896 15.9304 16.8903 15.9217 16.8917 15.9129L16.8925 15.9064C16.8939 15.8999 16.8954 15.8926 16.8968 15.8861L16.8976 15.8773C16.899 15.8708 16.9005 15.8643 16.9019 15.857L16.9034 15.8512C16.9048 15.8432 16.9063 15.8338 16.9085 15.8258L16.9099 15.82C16.9114 15.8127 16.9135 15.8054 16.915 15.7989L16.9164 15.7916C16.9186 15.7844 16.9208 15.7764 16.923 15.7691L16.9237 15.7669C16.9259 15.7582 16.9288 15.7495 16.9317 15.7415L16.9332 15.7335C16.9353 15.7277 16.9375 15.7219 16.939 15.7161L16.9419 15.7081C16.9448 15.7001 16.947 15.6928 16.9499 15.6863L16.952 15.6805C16.9542 15.6732 16.9571 15.6667 16.96 15.6601L16.9629 15.6514C16.9651 15.6456 16.9673 15.6398 16.9702 15.634L16.9731 15.6274C16.9767 15.6202 16.9796 15.6122 16.9833 15.6035L16.9855 15.5991C16.9884 15.5926 16.9913 15.5868 16.9942 15.5802L16.9978 15.573C17.0007 15.5672 17.0036 15.5621 17.0058 15.5563L17.0094 15.549C17.0131 15.5417 17.0174 15.5345 17.0211 15.5272L17.0254 15.5207C17.0276 15.5148 17.0305 15.5098 17.0334 15.5047L17.0385 15.496C17.0414 15.4916 17.0443 15.4858 17.0472 15.4822L17.0516 15.4742C17.0559 15.4676 17.0596 15.4611 17.0639 15.4546L17.0697 15.4458C17.0726 15.4415 17.0755 15.4371 17.0784 15.4328L17.0843 15.4233C17.0872 15.4197 17.0908 15.4153 17.0937 15.4102L17.101 15.4001C17.1046 15.3943 17.1082 15.3892 17.1126 15.3848L17.1191 15.3754C17.122 15.3717 17.1249 15.3681 17.1278 15.3645L17.1344 15.3558C17.138 15.3507 17.1424 15.3463 17.146 15.3412C17.1489 15.3376 17.1518 15.334 17.1547 15.3303C17.1584 15.326 17.162 15.3223 17.1656 15.318L17.1722 15.3093C17.1758 15.3064 17.1787 15.302 17.1823 15.2991C17.1845 15.2962 17.1874 15.2926 17.1896 15.2904C17.1947 15.2853 17.1983 15.2809 17.2027 15.2766C17.2063 15.2722 17.2099 15.2693 17.2128 15.2657C17.2165 15.262 17.2194 15.2591 17.2223 15.2562L17.2317 15.2468L17.2404 15.2388C17.2441 15.2352 17.2463 15.2323 17.2499 15.2293C17.255 15.225 17.2601 15.2199 17.2651 15.2155C17.2688 15.2126 17.2717 15.209 17.2746 15.2061C17.2782 15.2032 17.2811 15.2003 17.284 15.1981L17.3029 15.1821C17.3095 15.177 17.3153 15.172 17.3218 15.1661L17.3298 15.1596C17.3334 15.1567 17.3371 15.1545 17.34 15.1523L17.3501 15.1444C17.3538 15.1422 17.3567 15.1385 17.3603 15.1364C17.3632 15.1342 17.3661 15.132 17.369 15.1306C17.3763 15.1247 17.3836 15.1204 17.3908 15.1153L17.3981 15.1102C17.4017 15.1073 17.4061 15.1044 17.4104 15.1015L17.4184 15.0964C17.4228 15.0935 17.4271 15.0906 17.4308 15.0877L17.4395 15.0833C17.4468 15.079 17.4533 15.0739 17.4606 15.0695L17.47 15.0644C17.4744 15.0623 17.4787 15.0594 17.4824 15.0572L17.4918 15.0514C17.4962 15.0492 17.5005 15.047 17.5049 15.0448L17.51 15.0419C17.5187 15.0376 17.5267 15.0332 17.5361 15.0281L17.5456 15.0245L17.5579 15.0179C17.5615 15.0158 17.5652 15.0143 17.5688 15.0129C17.7206 14.9424 17.8892 14.9032 18.0672 14.9032H21.0936V14.0002L23.0289 15.9173L21.0936 17.8344V16.9314H18.9062V18.9052Z" fill="#222222"/>
</svg>
