<svg width="40" height="40" viewBox="0 0 40 40" fill="none" xmlns="http://www.w3.org/2000/svg">
<path d="M12.2601 26.75C13.5201 25.95 14.7651 25.345 15.9951 24.935C17.2251 24.525 18.5601 24.32 20.0001 24.32C21.4401 24.32 22.7801 24.525 24.0201 24.935C25.2601 25.345 26.5101 25.95 27.7701 26.75C28.6501 25.67 29.2751 24.58 29.6451 23.48C30.0151 22.38 30.2001 21.22 30.2001 20C30.2001 17.1 29.2251 14.675 27.2751 12.725C25.3251 10.775 22.9001 9.8 20.0001 9.8C17.1001 9.8 14.6751 10.775 12.7251 12.725C10.7751 14.675 9.80012 17.1 9.80012 20C9.80012 21.22 9.99012 22.38 10.3701 23.48C10.7501 24.58 11.3801 25.67 12.2601 26.75ZM19.9945 20.9C18.8383 20.9 17.8651 20.5031 17.0751 19.7094C16.2851 18.9157 15.8901 17.9407 15.8901 16.7844C15.8901 15.6281 16.287 14.655 17.0807 13.865C17.8744 13.075 18.8494 12.68 20.0057 12.68C21.162 12.68 22.1351 13.0769 22.9251 13.8706C23.7151 14.6643 24.1101 15.6393 24.1101 16.7956C24.1101 17.9519 23.7133 18.925 22.9195 19.715C22.1258 20.505 21.1508 20.9 19.9945 20.9ZM19.988 32C18.3251 32 16.7623 31.685 15.2997 31.055C13.8371 30.425 12.5649 29.565 11.483 28.475C10.4011 27.385 9.55012 26.1116 8.93012 24.6548C8.31012 23.198 8.00012 21.6414 8.00012 19.985C8.00012 18.3286 8.31512 16.772 8.94512 15.3152C9.57512 13.8584 10.4351 12.59 11.5251 11.51C12.6151 10.43 13.8885 9.575 15.3454 8.945C16.8022 8.315 18.3587 8 20.0151 8C21.6715 8 23.2281 8.315 24.6849 8.945C26.1417 9.575 27.4101 10.43 28.4901 11.51C29.5701 12.59 30.4251 13.86 31.0551 15.32C31.6851 16.78 32.0001 18.3373 32.0001 19.992C32.0001 21.6467 31.6851 23.2017 31.0551 24.657C30.4251 26.1123 29.5701 27.385 28.4901 28.475C27.4101 29.565 26.1388 30.425 24.6763 31.055C23.2137 31.685 21.6509 32 19.988 32Z" fill="#222222"/>
</svg>
