<svg width="248" height="40" viewBox="0 0 248 40" fill="none" xmlns="http://www.w3.org/2000/svg">
<path d="M3.25379 19.3863C3.82043 15.4477 7.76025 14.3895 8.14164 10.7959C6.36303 11.5853 4.23572 11.3371 2.67747 10.0489C0.950919 13.1605 0.85769 16.2177 3.25379 19.3863Z" fill="#2B3078"/>
<path d="M10.8683 7.97498C12.8842 7.67713 14.6084 6.26417 16.2586 4.86937C18.5433 2.9382 21.7216 0.555418 24.7509 0.786674C19.3364 -0.884179 13.4799 0.303579 9.90454 2.50354C11.2788 4.02789 11.5996 6.16488 10.8683 7.97498Z" fill="#2B3078"/>
<path d="M36.746 20.6132C36.1794 24.5506 32.2383 25.61 31.8582 29.2035C33.6356 28.4129 35.7641 28.6611 37.3223 29.9506C39.0489 26.8365 39.1421 23.7817 36.746 20.6132Z" fill="#2B3078"/>
<path d="M29.1316 32.0241C27.1157 32.322 25.3916 33.7349 23.7401 35.1297C21.4566 37.0597 18.2784 39.4437 15.249 39.2136C20.6636 40.8845 26.52 39.6955 30.0954 37.4956C28.7212 35.9712 28.4003 33.833 29.1316 32.0241Z" fill="#2B3078"/>
<path d="M20.614 3.25326C24.5514 3.8199 25.6108 7.76093 29.2032 8.14111C28.4125 6.36371 28.662 4.23519 29.9502 2.67815C26.8373 0.95039 23.7814 0.858372 20.614 3.25326Z" fill="#009F3C"/>
<path d="M32.0242 10.8675C32.3232 12.8834 33.735 14.6076 35.1298 16.259C37.0609 18.5437 39.4437 21.722 39.2137 24.7501C40.8845 19.3356 39.6956 13.4803 37.4956 9.90374C35.9713 11.278 33.8355 11.6 32.0242 10.8675Z" fill="#009F3C"/>
<path d="M19.3861 36.7461C15.4487 36.1795 14.3893 32.2384 10.7958 31.857C11.5864 33.6356 11.3382 35.7642 10.0499 37.3224C13.1628 39.0502 16.2188 39.1422 19.3861 36.7461Z" fill="#009F3C"/>
<path d="M7.97587 29.1317C7.67681 27.1146 6.26506 25.3904 4.86905 23.7402C2.9391 21.4567 0.556315 18.2784 0.78636 15.2491C-0.884493 20.6636 0.304476 26.5201 2.50443 30.0955C4.02878 28.7212 6.16578 28.3992 7.97587 29.1317Z" fill="#009F3C"/>
<path d="M37.0856 2.91297C38.7576 4.58503 38.7576 7.29593 37.0856 8.968C35.4147 10.6401 32.7038 10.6401 31.0318 8.968C29.3597 7.29593 29.3597 4.58503 31.0318 2.91297C32.7038 1.24091 35.4147 1.24091 37.0856 2.91297Z" fill="#009F3C"/>
<path d="M8.9682 31.0322C10.6391 32.7043 10.6391 35.414 8.9682 37.086C7.29614 38.7569 4.58524 38.7569 2.91317 37.086C1.24232 35.414 1.24232 32.7043 2.91317 31.0322C4.58524 29.3602 7.29614 29.3602 8.9682 31.0322Z" fill="#009F3C"/>
<path d="M37.0856 37.086C35.4147 38.7569 32.7038 38.7569 31.0318 37.086C29.3597 35.414 29.3597 32.7043 31.0318 31.0322C32.7038 29.3602 35.4147 29.3602 37.0856 31.0322C38.7576 32.7043 38.7576 35.414 37.0856 37.086Z" fill="#2B3078"/>
<path d="M8.9682 8.9683C7.29614 10.6391 4.58524 10.6391 2.91317 8.9683C1.24232 7.29623 1.24232 4.58412 2.91317 2.91327C4.58524 1.2412 7.29614 1.2412 8.9682 2.91327C10.6391 4.58412 10.6391 7.29623 8.9682 8.9683Z" fill="#2B3078"/>
<path d="M18.177 23.6081V25.1143H21.8226V21.8222L24.9573 24.8515C25.2212 25.1034 25.1994 25.2438 25.2031 25.4775V26.5127C25.2031 26.5272 25.2019 26.543 25.2019 26.5587V26.572C25.2007 26.5829 25.2007 26.595 25.2007 26.6071L25.1994 26.6192C25.1982 26.6338 25.1982 26.6495 25.197 26.664L25.1958 26.6677C25.1958 26.6822 25.1946 26.6955 25.1922 26.7088L25.191 26.7234C25.1898 26.7343 25.1885 26.7452 25.1873 26.7573L25.1861 26.7669C25.1837 26.7827 25.1825 26.7972 25.1801 26.8105L25.1789 26.8214C25.1764 26.8335 25.174 26.8444 25.1728 26.8565L25.1704 26.8687C25.168 26.8808 25.1655 26.8917 25.1643 26.9038L25.1619 26.9147C25.1583 26.928 25.1559 26.9425 25.1522 26.9558L25.1498 26.9667C25.1474 26.9776 25.145 26.9897 25.1413 27.0006L25.1377 27.0127C25.1353 27.0248 25.1316 27.0382 25.128 27.0515L25.1268 27.0551C25.1232 27.0696 25.1195 27.083 25.1147 27.0963L25.1111 27.1096C25.1074 27.1193 25.1038 27.1302 25.1014 27.1399L25.0965 27.152C25.0917 27.1653 25.0868 27.1774 25.0832 27.1895L25.0796 27.1992C25.0759 27.2089 25.0711 27.2222 25.0663 27.2331L25.0614 27.2464C25.0578 27.2573 25.0542 27.2658 25.0493 27.2755L25.0457 27.2876C25.0396 27.2997 25.0336 27.313 25.0275 27.3251L25.0251 27.3348C25.019 27.3445 25.0154 27.3554 25.0106 27.3651L25.0033 27.3784C24.9985 27.3869 24.9936 27.3965 24.99 27.4062L24.9839 27.4171C24.9779 27.4292 24.9718 27.4413 24.9646 27.4534L24.9585 27.4656C24.9537 27.474 24.9488 27.4825 24.944 27.491L24.9355 27.5055C24.9307 27.514 24.9258 27.5213 24.921 27.5297L24.9137 27.543C24.9076 27.5527 24.9004 27.5648 24.8931 27.5757L24.8834 27.5903C24.8786 27.5975 24.875 27.6036 24.8701 27.6108L24.8592 27.6266C24.8544 27.6339 24.8495 27.6411 24.8435 27.6484L24.8326 27.6653C24.8253 27.675 24.8193 27.6835 24.812 27.692L24.8011 27.7077C24.7975 27.7126 24.7914 27.7198 24.7878 27.7259L24.7757 27.7404C24.7696 27.7477 24.7624 27.7561 24.7563 27.7646C24.7515 27.7695 24.7466 27.7767 24.7418 27.7828C24.7357 27.7888 24.7309 27.7949 24.7248 27.8034L24.7127 27.8179C24.7067 27.8227 24.7018 27.8288 24.6958 27.8336C24.6921 27.8397 24.6873 27.8445 24.6837 27.8494C24.6764 27.8566 24.6691 27.8639 24.6619 27.8724C24.6558 27.8784 24.6498 27.8845 24.6437 27.8905C24.6401 27.8954 24.6352 27.9014 24.6292 27.9051L24.6146 27.9208L24.5989 27.9365C24.5941 27.9402 24.5892 27.945 24.5844 27.9499H24.5832C24.5747 27.9583 24.5662 27.9668 24.5577 27.9741C24.5529 27.9789 24.5468 27.985 24.542 27.9886C24.5359 27.9935 24.5311 27.9983 24.5263 28.0031L24.5105 28.0165L24.4948 28.031C24.4851 28.0395 24.4742 28.0467 24.4645 28.0552L24.45 28.0661C24.4439 28.0709 24.4391 28.0758 24.433 28.0806L24.4173 28.0927C24.4112 28.0964 24.4052 28.1 24.3991 28.1048C24.3943 28.1085 24.3894 28.1121 24.3846 28.1157C24.3725 28.1242 24.3616 28.1327 24.3483 28.1412L24.3362 28.1496C24.3301 28.1545 24.3229 28.1593 24.3156 28.163L24.3023 28.1726C24.295 28.1763 24.2877 28.1811 24.2817 28.186L24.2672 28.1944C24.2563 28.2017 24.2442 28.209 24.232 28.215L24.2163 28.2259C24.209 28.2308 24.2018 28.2332 24.1957 28.238L24.18 28.2465C24.1727 28.2501 24.1655 28.2538 24.1594 28.2574L24.1509 28.2622C24.1352 28.2695 24.1219 28.278 24.1061 28.284L24.0904 28.2937L24.0698 28.3034C24.0637 28.3058 24.0577 28.3082 24.0516 28.3119C23.7986 28.4281 23.5177 28.4923 23.2211 28.4923H18.177V29.9985L14.9528 26.8033L18.177 23.6081ZM21.8226 18.1766H25.1147V21.8222H23.6085L26.8037 25.0477L29.9989 21.8222H28.4927V16.7781C28.4927 16.4815 28.4285 16.2006 28.3111 15.9476C28.3087 15.9415 28.3051 15.9355 28.3026 15.9294L28.2929 15.9088L28.2845 15.8931C28.2772 15.8786 28.2699 15.864 28.2627 15.8495L28.2578 15.841C28.2542 15.8338 28.2506 15.8265 28.2457 15.8192L28.2372 15.8035C28.2336 15.7974 28.23 15.7902 28.2264 15.7853L28.2167 15.7672C28.2094 15.7551 28.2021 15.7429 28.1949 15.732L28.1864 15.7187C28.1816 15.7103 28.1767 15.7042 28.1719 15.6969L28.1634 15.6836C28.1586 15.6764 28.1549 15.6691 28.1501 15.663L28.1416 15.6509C28.1331 15.6376 28.1246 15.6267 28.1162 15.6146C28.1125 15.611 28.1089 15.6049 28.1053 15.6013C28.1016 15.5952 28.0968 15.5892 28.092 15.5831L28.0798 15.5662C28.075 15.5601 28.0714 15.5553 28.0665 15.5492L28.0544 15.5359C28.0472 15.525 28.0387 15.5141 28.0302 15.5056L28.0169 15.4899L28.0036 15.4742C27.9987 15.4681 27.9939 15.4633 27.989 15.4584C27.9842 15.4524 27.9794 15.4463 27.9745 15.4427V15.4415C27.966 15.433 27.9588 15.4233 27.9503 15.4148C27.9455 15.4112 27.9406 15.4051 27.9358 15.4003L27.9212 15.3858L27.9055 15.37C27.9007 15.364 27.8958 15.3603 27.8898 15.3555C27.8837 15.3494 27.8789 15.3434 27.8728 15.3386C27.8655 15.3313 27.8571 15.3228 27.8498 15.3155C27.8438 15.3119 27.8389 15.3071 27.8353 15.3034C27.828 15.2974 27.8232 15.2925 27.8171 15.2877L27.8026 15.2756C27.7953 15.2695 27.7893 15.2635 27.782 15.2586C27.7759 15.2526 27.7711 15.2477 27.7651 15.2429C27.7566 15.2356 27.7481 15.2308 27.7408 15.2235L27.7263 15.2126C27.7203 15.2066 27.713 15.2017 27.7069 15.1981L27.6924 15.186C27.6839 15.1799 27.6742 15.1727 27.6658 15.1678L27.6488 15.1557C27.6416 15.1509 27.6343 15.1448 27.627 15.14L27.6101 15.1303C27.604 15.1255 27.598 15.1206 27.5907 15.117L27.575 15.1061C27.5641 15.1 27.5532 15.0916 27.5423 15.0855L27.5302 15.0782C27.5217 15.0734 27.5144 15.0698 27.5059 15.0637L27.4914 15.0552C27.4829 15.0516 27.4745 15.0455 27.466 15.0419L27.4527 15.0347C27.4418 15.0286 27.4297 15.0213 27.4176 15.0165L27.4067 15.0104C27.397 15.0044 27.3873 14.9995 27.3776 14.9959L27.3655 14.9899C27.3546 14.985 27.3449 14.9802 27.3352 14.9753L27.3268 14.9717C27.3134 14.9656 27.3001 14.9608 27.288 14.9547L27.2759 14.9487C27.2662 14.9451 27.2565 14.9426 27.2468 14.9378L27.2335 14.9317C27.2226 14.9281 27.2105 14.9233 27.1996 14.9184L27.1899 14.916C27.1778 14.9112 27.1657 14.9075 27.1524 14.9027L27.1391 14.8978C27.1294 14.8954 27.1197 14.8918 27.11 14.8894L27.0979 14.8857C27.0834 14.8809 27.0689 14.876 27.0555 14.8724H27.0519C27.0386 14.8676 27.0253 14.8639 27.0132 14.8615L27.0011 14.8579C26.989 14.8542 26.9781 14.853 26.9659 14.8494L26.9575 14.847C26.9429 14.8446 26.9284 14.8409 26.9139 14.8385L26.9042 14.8361C26.8921 14.8337 26.8812 14.8312 26.8703 14.8288L26.8558 14.8264C26.8449 14.8252 26.834 14.8228 26.8219 14.8203L26.8122 14.8191C26.7964 14.8167 26.7819 14.8143 26.7674 14.8131L26.7577 14.8119C26.7468 14.8107 26.7335 14.8094 26.7226 14.8094L26.7093 14.807C26.6959 14.8058 26.6826 14.8046 26.6681 14.8034H26.6645C26.6487 14.8022 26.633 14.801 26.6185 14.7998L26.6064 14.7986C26.5955 14.7986 26.5833 14.7973 26.5725 14.7973H26.5579C26.5434 14.7973 26.5277 14.7973 26.5131 14.7973H25.4779C25.243 14.7998 25.1038 14.778 24.852 15.0419L21.8226 18.1766ZM18.177 21.8222H14.8862V18.1766H16.3911L13.1959 14.9523L10.0007 18.1766H11.5069V23.2206C11.5069 23.5185 11.5723 23.7994 11.6885 24.0524C11.691 24.0573 11.6946 24.0633 11.697 24.0694L11.7067 24.0912L11.7152 24.1069C11.7224 24.1202 11.7297 24.136 11.737 24.1505L11.7418 24.1578C11.7454 24.1662 11.7503 24.1735 11.7539 24.1795L11.7624 24.1953C11.766 24.2026 11.7697 24.2086 11.7745 24.2159L11.7842 24.2328C11.7902 24.2449 11.7975 24.257 11.806 24.2679L11.8145 24.2812C11.8181 24.2873 11.8229 24.2946 11.8278 24.3018L11.8362 24.3164C11.8411 24.3224 11.8459 24.3297 11.8508 24.3357L11.8593 24.3491C11.8665 24.3612 11.875 24.3721 11.8835 24.3842C11.8871 24.389 11.8907 24.3939 11.8944 24.3987C11.8992 24.4047 11.9028 24.4108 11.9077 24.4169L11.9198 24.4326C11.9246 24.4374 11.9283 24.4435 11.9331 24.4495L11.9452 24.4641C11.9525 24.4738 11.961 24.4847 11.9706 24.4956L11.9828 24.5101L11.9973 24.5258C12.0021 24.5319 12.0058 24.5355 12.0106 24.5428C12.0154 24.5464 12.0203 24.5525 12.0251 24.5573C12.0324 24.567 12.0409 24.5755 12.0493 24.5839C12.0542 24.5888 12.059 24.5936 12.0639 24.5985L12.0784 24.613L12.0941 24.6287C12.099 24.6348 12.105 24.6396 12.1099 24.6445C12.1159 24.6505 12.1208 24.6566 12.128 24.6614C12.1353 24.6687 12.1426 24.676 12.151 24.6832C12.1559 24.6869 12.1607 24.6917 12.1656 24.6965C12.1716 24.7014 12.1765 24.7074 12.1825 24.7123L12.1971 24.7244C12.2031 24.7292 12.2104 24.7353 12.2176 24.7401C12.2237 24.7462 12.2297 24.751 12.2358 24.7559C12.2431 24.7619 12.2515 24.7692 12.26 24.7752L12.2745 24.7873C12.2806 24.791 12.2867 24.797 12.2927 24.8019L12.3072 24.8128C12.3169 24.8188 12.3254 24.8261 12.3339 24.8321L12.3508 24.843C12.3581 24.8491 12.3666 24.8539 12.3726 24.8588L12.3896 24.8697C12.3956 24.8745 12.4029 24.8782 12.4089 24.883L12.4247 24.8927C12.4356 24.8999 12.4465 24.9072 12.4574 24.9133L12.4695 24.9205C12.478 24.9254 12.4864 24.9302 12.4937 24.9351L12.5082 24.9435C12.5167 24.9484 12.5264 24.9532 12.5336 24.9581L12.547 24.9641C12.5579 24.9702 12.57 24.9774 12.5821 24.9823L12.5942 24.9895C12.6027 24.9944 12.6123 24.9992 12.622 25.0041L12.6341 25.0101C12.645 25.015 12.6547 25.0186 12.6656 25.0234L12.6741 25.0271C12.6874 25.0343 12.6995 25.0392 12.7128 25.0452L12.7249 25.0501C12.7334 25.0537 12.7431 25.0573 12.7528 25.061L12.7661 25.067C12.7782 25.0719 12.7891 25.0755 12.8012 25.0804L12.8097 25.0828C12.823 25.0876 12.8339 25.0925 12.8472 25.0961L12.8606 25.1009C12.8702 25.1034 12.8799 25.107 12.8896 25.1106L12.9029 25.1143C12.9163 25.1191 12.9308 25.1227 12.9441 25.1276H12.9489C12.961 25.1312 12.9744 25.1348 12.9865 25.1385L12.9986 25.1421C13.0107 25.1445 13.0216 25.1469 13.0337 25.1494L13.0434 25.1518C13.0579 25.1554 13.0712 25.1591 13.0858 25.1615L13.0967 25.1627C13.1076 25.1663 13.1184 25.1675 13.1306 25.17L13.1439 25.1724C13.156 25.1748 13.1657 25.176 13.1778 25.1784L13.1887 25.1796C13.202 25.1821 13.2177 25.1833 13.2323 25.1857L13.2419 25.1869C13.2541 25.1881 13.2662 25.1893 13.2771 25.1917L13.2904 25.193C13.3037 25.193 13.317 25.1954 13.3315 25.1966H13.3352C13.3509 25.1978 13.3667 25.199 13.3812 25.199H13.3933C13.4054 25.2014 13.4163 25.2014 13.4284 25.2014H13.4417H13.4877H14.5229C14.7566 25.199 14.8958 25.222 15.1489 24.9581L18.177 21.8222ZM18.177 18.1754L15.0424 15.1485C14.7784 14.8954 14.8002 14.7562 14.7978 14.5213V13.4861C14.7978 13.4716 14.7978 13.457 14.7978 13.4413V13.428C14.799 13.4159 14.799 13.405 14.8002 13.3941V13.382C14.8014 13.3662 14.8026 13.3493 14.8026 13.3359L14.8038 13.3311C14.805 13.3166 14.8063 13.3045 14.8075 13.2899L14.8087 13.2778C14.8099 13.2657 14.8111 13.2536 14.8123 13.2427L14.8147 13.2318C14.8159 13.2173 14.8171 13.2028 14.8196 13.1882L14.8208 13.1773C14.8232 13.1664 14.8256 13.1543 14.828 13.1434L14.8293 13.1289C14.8317 13.118 14.8341 13.1071 14.8365 13.095L14.8389 13.0853C14.8414 13.072 14.8438 13.0563 14.8474 13.0429L14.8498 13.0333C14.8523 13.0212 14.8559 13.009 14.8583 12.9981L14.8607 12.986C14.8644 12.9739 14.868 12.9606 14.8716 12.9485L14.8728 12.9449C14.8765 12.9303 14.8813 12.9158 14.8862 12.9025L14.8886 12.8892C14.8922 12.8795 14.8958 12.8698 14.8983 12.8601L14.9031 12.8468C14.908 12.8335 14.9116 12.8214 14.9164 12.8105L14.9201 12.8008C14.9237 12.7887 14.9285 12.7778 14.9334 12.7669L14.9382 12.7524C14.9419 12.7427 14.9455 12.733 14.9503 12.7233L14.9552 12.7124C14.9612 12.7003 14.9661 12.687 14.9721 12.6725L14.9758 12.6652C14.9806 12.6543 14.9854 12.6446 14.9903 12.6337L14.9963 12.6216C15.0012 12.6119 15.006 12.6034 15.0097 12.5938L15.0157 12.5816C15.0218 12.5695 15.029 12.5574 15.0351 12.5453L15.0424 12.5344C15.046 12.5247 15.0508 12.5163 15.0557 12.5078L15.0641 12.4933C15.069 12.486 15.0738 12.4763 15.0787 12.4703L15.0859 12.4569C15.0932 12.446 15.0993 12.4351 15.1065 12.4242L15.1162 12.4097C15.121 12.4025 15.1259 12.3952 15.1307 12.3879L15.1404 12.3722C15.1453 12.3661 15.1513 12.3589 15.1562 12.3504L15.1683 12.3334C15.1743 12.3238 15.1804 12.3153 15.1876 12.308L15.1985 12.2923C15.2034 12.2862 15.2082 12.2802 15.2131 12.2741L15.224 12.2596C15.23 12.2511 15.2373 12.2438 15.2433 12.2354C15.2482 12.2293 15.253 12.2233 15.2579 12.2172C15.2639 12.2099 15.27 12.2039 15.276 12.1966L15.2869 12.1821C15.293 12.1772 15.2978 12.17 15.3039 12.1651C15.3075 12.1603 15.3124 12.1542 15.316 12.1506C15.3245 12.1421 15.3305 12.1349 15.3378 12.1276C15.3438 12.1203 15.3499 12.1155 15.3547 12.1094C15.3608 12.1034 15.3656 12.0985 15.3705 12.0937L15.3862 12.078L15.4007 12.0646C15.4068 12.0586 15.4104 12.0538 15.4165 12.0489C15.425 12.0416 15.4334 12.0332 15.4419 12.0259V12.0247C15.448 12.0198 15.4528 12.015 15.4576 12.0102C15.4637 12.0053 15.4685 12.0005 15.4734 11.9968L15.4891 11.9835L15.5049 11.9702C15.5158 11.9617 15.5254 11.9533 15.5363 11.9436L15.5497 11.9327C15.5557 11.9278 15.5618 11.9242 15.5666 11.9206L15.5836 11.9072C15.5896 11.9036 15.5945 11.8976 15.6005 11.8939C15.6054 11.8903 15.6102 11.8867 15.615 11.8842C15.6271 11.8746 15.6393 11.8673 15.6514 11.8588L15.6635 11.8503C15.6695 11.8455 15.6768 11.8407 15.6841 11.8358L15.6974 11.8273C15.7046 11.8225 15.7119 11.8177 15.718 11.8128L15.7325 11.8055C15.7446 11.7983 15.7555 11.7898 15.7676 11.7825L15.7833 11.7741C15.7906 11.7704 15.7979 11.7656 15.8039 11.762L15.8197 11.7523C15.8269 11.7486 15.8342 11.745 15.8415 11.7414L15.8499 11.7365C15.8645 11.7293 15.8778 11.722 15.8935 11.7135L15.9093 11.7075L15.9298 11.6966C15.9359 11.6929 15.9419 11.6905 15.948 11.6881C16.2011 11.5707 16.4819 11.5053 16.7786 11.5053H21.8226V10.0003L25.0481 13.1955L21.8226 16.3907V14.8857H18.177V18.1754Z" fill="#009F3C"/>
<path d="M18.1895 25.079V21.81H14.9204V18.1886H18.1895V14.9207H21.8109V18.1886H25.0787V21.81H21.8109V25.079H18.1895Z" fill="white"/>
<path d="M120.699 19.4736C119.639 16.3823 118.577 13.2922 117.516 10.2008L115.118 13.1857V19.4845C115.118 21.0211 114.256 22.0096 112.38 21.9999H111.257C111.257 14.6727 111.258 7.34541 111.258 0.0169411H112.082C112.484 0.0169411 112.813 0.0108891 113.204 0.0859051C114.516 0.333939 115.127 1.24017 115.127 2.53478V2.57592V9.38896L121.972 1.15184C122.924 0.00484085 123.487 0.0157299 125.053 0.0169411H125.582C123.775 2.33151 121.968 4.64487 120.163 6.95944C122.011 11.9709 123.859 16.9824 125.707 21.9939H125.107C124.22 21.9939 123.363 22.0278 122.547 21.6563C121.993 21.4022 121.545 21.0163 121.203 20.5263C120.971 20.1899 120.828 19.8487 120.699 19.4736Z" fill="#009F3C"/>
<path d="M140.085 19.1301C139.118 21.2148 136.823 22 134.369 22C130.572 22 128.503 19.9202 127.571 17.2111C126.922 15.3261 126.716 12.9801 127.063 10.7829C127.592 7.42413 129.642 3.85245 133.885 3.85245C140.027 3.85245 140.721 8.59775 140.93 12.8554H130.651C130.537 15.4011 131.059 20.0871 134.899 20.0871C135.916 20.0871 136.686 19.9081 137.208 19.5523C138.132 19.0103 138.894 18.53 140.085 19.1301ZM137.426 11.2801C137.354 10.2481 137.239 9.37572 137.081 8.66308C136.171 4.60744 131.951 5.02607 130.973 8.63525C130.779 9.3479 130.667 10.2287 130.635 11.2801H137.426Z" fill="#009F3C"/>
<path d="M146.482 19.2898C147.167 19.7423 147.987 19.9673 148.943 19.9673C149.939 19.9673 150.683 19.7326 151.171 19.2607C151.659 18.7913 151.902 18.1888 151.902 17.4556C151.902 16.9462 151.819 16.5191 151.653 16.1706C151.487 15.8222 151.274 15.5257 151.014 15.2813C150.755 15.0357 150.454 14.8337 150.111 14.674C149.768 14.513 149.421 14.3678 149.067 14.236C148.279 13.9541 147.557 13.6479 146.902 13.3188C146.248 12.9897 145.683 12.6171 145.206 12.2033C144.727 11.7895 144.353 11.314 144.083 10.7768C143.813 10.242 143.679 9.61529 143.679 8.90023C143.679 8.05328 143.829 7.30919 144.13 6.66914C144.432 6.0303 144.852 5.49915 145.391 5.07447C145.932 4.651 146.57 4.33158 147.308 4.115C148.045 3.89843 148.849 3.79074 149.722 3.79074C150.781 3.79074 151.773 3.96376 152.696 4.31222C153.62 4.66068 154.301 5.30556 154.737 6.24688C153.488 7.12044 152.671 6.49491 151.886 6.20453C151.74 6.12589 151.588 6.05934 151.432 6.00247C150.998 5.84518 150.519 5.76654 150.002 5.76654C149.587 5.76654 149.186 5.81252 148.802 5.90689C148.418 6.00247 148.08 6.14766 147.79 6.34488C147.499 6.54331 147.272 6.79255 147.104 7.09382C146.939 7.39388 146.856 7.76169 146.856 8.19484C146.856 8.9099 147.074 9.46526 147.51 9.8609C147.946 10.2553 148.492 10.5856 149.146 10.8482C149.8 11.112 150.506 11.3612 151.264 11.5959C152.022 11.8319 152.728 12.1476 153.382 12.5421C154.036 12.9365 154.581 13.4556 155.018 14.0956C155.454 14.7357 155.672 15.6007 155.672 16.6921C155.672 17.5209 155.511 18.265 155.189 18.9232C154.866 19.5814 154.426 20.1367 153.865 20.5892C153.304 21.0393 152.633 21.3878 151.855 21.6334C151.076 21.8778 150.241 22 149.348 22C147.853 22 146.575 21.7266 145.517 21.1809C144.457 20.6364 143.679 19.798 143.18 18.6691C143.59 18.415 144.255 18.0303 145.105 18.3388C145.674 18.5445 146.001 18.9728 146.482 19.2898Z" fill="#009F3C"/>
<path d="M184.91 8.68478C184.91 7.78582 184.697 7.1736 184.271 6.84813C183.846 6.52266 183.176 6.35932 182.263 6.35932C181.515 6.35932 180.818 6.52266 180.174 6.84813C179.53 7.1736 179.064 7.53657 178.773 7.93948V19.5692V19.6067C178.773 20.8372 178.193 21.6974 176.947 21.9358C176.575 22.0048 176.263 21.9999 175.88 21.9999H175.097V0.0229874H175.88C176.263 0.0229874 176.575 0.0169353 176.947 0.0883217C178.193 0.324255 178.773 1.18572 178.773 2.4162V2.45492V4.04233V6.07378C179.25 5.50028 179.956 4.99212 180.891 4.55171C181.826 4.11251 182.916 3.8923 184.162 3.8923C185.657 3.8923 186.769 4.26012 187.495 4.99817C188.222 5.7338 188.585 6.87717 188.585 8.42586V21.9999H187.802C187.42 21.9999 187.107 22.0048 186.736 21.9358C185.489 21.6974 184.91 20.8372 184.91 19.6067V19.5692V8.68478Z" fill="#009F3C"/>
<path d="M200.595 11.9662C200.18 12.173 199.692 12.3364 199.131 12.4586C198.57 12.5796 198.031 12.7163 197.511 12.8651C196.473 13.1652 195.725 13.625 195.269 14.242C194.811 14.8615 194.583 15.6673 194.583 16.6606C194.583 17.7834 194.806 18.6038 195.253 19.1192C195.7 19.6346 196.4 19.8911 197.356 19.8911C198.083 19.8911 198.726 19.7229 199.288 19.3854C199.848 19.049 200.284 18.5796 200.595 17.9807V11.9662ZM200.876 19.5269C200.46 20.2952 199.837 20.899 199.007 21.3394C198.176 21.7798 197.2 22 196.079 22C194.375 22 193.103 21.5729 192.262 20.7199C191.422 19.8681 191 18.6836 191 17.1664C191 15.6479 191.333 14.4864 191.998 13.6806C192.663 12.8748 193.691 12.2565 195.082 11.8258C195.537 11.6758 196.022 11.5596 196.53 11.4749C197.039 11.3902 197.538 11.3055 198.026 11.2208C198.513 11.1374 198.981 11.0345 199.427 10.9123C200.448 10.634 200.547 10.3679 200.564 9.64674C200.571 9.31402 200.564 8.98129 200.564 8.64977C200.564 7.73144 200.357 7.03937 199.942 6.56992C199.525 6.10168 198.737 5.86817 197.574 5.86817C196.701 5.86817 195.948 6.04119 195.316 6.38844C194.088 7.05873 193.547 7.60198 191.966 6.82279C192.568 5.7738 193.394 5.02002 194.443 4.56146C195.491 4.10169 196.628 3.87302 197.854 3.87302C198.726 3.87302 199.552 3.9323 200.33 4.05571C201.109 4.17671 201.785 4.41022 202.355 4.75747C202.925 5.1035 203.378 5.5911 203.71 6.21905C204.042 6.84699 204.209 7.66611 204.209 8.67881V12.4562V18.9921V19.0151V21.9867C204.124 21.9879 203.628 21.9903 203.211 21.9903C201.464 21.9915 200.92 21.0611 200.876 19.5269Z" fill="#009F3C"/>
<path d="M217.251 20.8228C216.669 21.2438 216.072 21.5439 215.46 21.7266C214.847 21.908 214.042 22 213.045 22C211.467 22 210.232 21.5548 209.338 20.6643C208.446 19.775 207.999 18.536 207.999 16.9474V5.65401H207.4C206.379 5.62377 205.84 5.46406 205.84 3.87423H207.991V7.05719e-05H208.774C209.156 7.05719e-05 209.469 -0.00477028 209.84 0.0654049C211.087 0.302549 211.666 1.1628 211.666 2.39329V2.432V3.87423H213.822C214.843 3.90568 215.382 4.06418 215.382 5.65401H211.644V16.9474C211.644 17.9238 211.857 18.6848 212.282 19.2293C212.707 19.775 213.389 20.0472 214.323 20.0472C214.664 20.0472 214.966 20.0278 215.226 19.9867C216.307 19.8185 216.839 19.9746 217.251 20.8228Z" fill="#009F3C"/>
<path d="M244.326 8.68478C244.326 7.78581 244.112 7.1736 243.687 6.84813C243.261 6.52266 242.59 6.35932 241.677 6.35932C240.93 6.35932 240.234 6.52266 239.59 6.84813C238.947 7.1736 238.479 7.53657 238.189 7.93948V19.5692V19.6067C238.189 20.8372 237.61 21.6974 236.361 21.9358C235.991 22.0048 235.678 21.9999 235.296 21.9999H234.512V3.8923H235.296C235.678 3.8923 235.991 3.88746 236.361 3.95885C237.537 4.18147 238.118 4.95824 238.183 6.0762L238.189 6.07378C238.667 5.50028 239.372 4.99212 240.306 4.55171C241.241 4.1125 242.331 3.8923 243.577 3.8923C245.073 3.8923 246.184 4.26011 246.911 4.99817C247.637 5.7338 248.001 6.87717 248.001 8.42586V21.9999H247.217C246.835 21.9999 246.523 22.0048 246.152 21.9358C244.904 21.6974 244.326 20.8372 244.326 19.6067V19.5692V8.68478Z" fill="#009F3C"/>
<path d="M171.25 19.1301C170.283 21.2148 167.988 22 165.536 22C161.739 22 159.668 19.9202 158.737 17.2111C158.088 15.3261 157.882 12.9801 158.228 10.7829C158.757 7.42413 160.809 3.85245 165.049 3.85245C171.192 3.85245 171.887 8.59775 172.096 12.8554H161.815C161.702 15.4011 162.224 20.0871 166.064 20.0871C167.082 20.0871 167.851 19.9081 168.375 19.5523C169.298 19.0103 170.059 18.53 171.25 19.1301ZM168.591 11.2801C168.52 10.2481 168.405 9.37572 168.245 8.66308C167.338 4.60744 163.118 5.02607 162.138 8.63525C161.945 9.3479 161.832 10.2287 161.8 11.2801H168.591Z" fill="#009F3C"/>
<path d="M228.173 11.9662C227.757 12.173 227.268 12.3364 226.709 12.4586C226.148 12.5796 225.607 12.7163 225.089 12.8651C224.05 13.1652 223.302 13.625 222.845 14.242C222.388 14.8615 222.161 15.6673 222.161 16.6606C222.161 17.7834 222.383 18.6038 222.83 19.1192C223.277 19.6346 223.977 19.8911 224.932 19.8911C225.66 19.8911 226.303 19.7229 226.864 19.3854C227.424 19.049 227.86 18.5796 228.173 17.9807V11.9662ZM228.452 19.5269C228.037 20.2952 227.415 20.899 226.584 21.3394C225.753 21.7798 224.776 22 223.655 22C221.953 22 220.681 21.5729 219.839 20.7199C218.998 19.8681 218.577 18.6836 218.577 17.1664C218.577 15.6479 218.91 14.4864 219.574 13.6806C220.239 12.8748 221.267 12.2565 222.659 11.8258C223.115 11.6758 223.598 11.5596 224.108 11.4749C224.616 11.3902 225.114 11.3055 225.602 11.2208C226.091 11.1374 226.557 11.0345 227.004 10.9123C228.025 10.634 228.124 10.3679 228.141 9.64674C228.149 9.31402 228.141 8.98129 228.141 8.64977C228.141 7.73144 227.933 7.03937 227.518 6.56992C227.102 6.10168 226.314 5.86817 225.15 5.86817C224.278 5.86817 223.525 6.04119 222.892 6.38844C221.665 7.05873 221.124 7.60198 219.544 6.82279C220.146 5.7738 220.971 5.02002 222.02 4.56146C223.067 4.10169 224.206 3.87302 225.431 3.87302C226.303 3.87302 227.129 3.9323 227.908 4.05571C228.686 4.17671 229.361 4.41022 229.931 4.75747C230.504 5.1035 230.955 5.5911 231.287 6.21905C231.619 6.84699 231.786 7.66611 231.786 8.67881V12.4562V18.9921V19.0151V21.9867C231.7 21.9879 231.205 21.9903 230.788 21.9903C229.041 21.9915 228.496 21.0611 228.452 19.5269Z" fill="#009F3C"/>
<path d="M54.7012 9.92623C57.1316 9.8488 57.806 7.73265 57.806 5.9698C57.806 4.11742 57.6171 2.01095 55.0972 2.01095H51.8604V9.92623H54.7012ZM54.6613 20.1077C55.8661 20.1077 56.7525 19.7725 57.3229 19.1035C57.8944 18.4344 58.179 17.3539 58.179 15.8633C58.179 13.971 57.9247 12.0339 55.3152 11.6467H51.8604V20.1077H54.6613ZM48 22V18.5009V0.0327396H55.5598C59.8319 0.0327396 61.7306 2.7611 61.3504 6.3473C61.176 7.99763 60.5524 9.70361 58.8898 10.5856C62.9597 11.827 62.9682 17.775 60.5609 20.3521C59.534 21.4507 57.8896 22 55.6264 22H48Z" fill="#2B3078"/>
<path d="M66.2236 0.0326862H66.685H69.1771H73.6938C74.8151 0.0326862 75.7693 0.146418 76.5588 0.377512C77.3472 0.606186 77.9805 0.949802 78.4576 1.40957C78.9347 1.86813 79.2822 2.44647 79.5002 3.14338C79.7181 3.84151 79.8271 4.65941 79.8271 5.59589C79.8271 7.08771 79.7133 8.33514 79.4844 9.33816C79.2568 10.3424 78.8729 11.1506 78.3328 11.7628C77.7928 12.3738 77.0832 12.813 76.2004 13.0804C75.3189 13.349 74.2242 13.4821 72.9164 13.4821H70.0841V19.4845C70.0841 21.0199 69.2231 22.0084 67.3486 21.9999H66.2248C66.2248 14.6775 66.2236 7.35511 66.2236 0.0326862ZM72.5119 11.533C73.1344 11.533 73.6575 11.4507 74.0837 11.2885C74.5088 11.1252 74.8623 10.8542 75.1421 10.4706C75.4218 10.0895 75.6252 9.58256 75.75 8.95099C75.8735 8.32062 75.9364 7.53659 75.9364 6.59891C75.9364 5.68179 75.8832 4.9268 75.7802 4.33515C75.6761 3.74229 75.515 3.27284 75.2983 2.92923C75.0803 2.58561 74.7945 2.34605 74.4422 2.21296C74.0886 2.07866 73.6526 2.0109 73.1344 2.0109H70.0841V11.533H72.5119Z" fill="#2B3078"/>
<path d="M83.9413 0.0158005H84.7574C85.1546 0.0158005 85.4804 0.0109596 85.8666 0.0847645C87.166 0.331587 87.7702 1.22814 87.7702 2.50823V2.54937V16.5215C87.7702 20.173 85.6111 22 81.2954 22C81.0896 22 80.8898 21.9952 80.696 21.9867C79.2841 21.9661 78.0417 21.6431 76.9688 21.0175C75.8584 20.3715 75.0446 19.4471 74.5251 18.2456C75.4249 17.8814 76.1974 17.6951 77.0196 18.294C77.3539 18.536 77.6312 18.8385 77.9811 19.078C78.3674 19.3406 78.8058 19.5306 79.2962 19.6503C80.3412 19.9032 81.8234 19.9153 82.8309 19.3612C83.8565 18.7986 83.9413 17.7217 83.9413 16.7223V0.0158005Z" fill="#2B3078"/>
<path d="M94.4981 19.0877C95.2041 19.5693 96.0856 19.8088 97.144 19.8088C97.6416 19.8088 98.12 19.7302 98.5765 19.5729C99.033 19.4156 99.4314 19.1942 99.7741 18.9075C100.117 18.6219 100.387 18.2698 100.584 17.8548C100.78 17.4386 100.88 16.9728 100.88 16.4537C100.88 15.9915 100.807 15.5862 100.662 15.2354C100.516 14.8833 100.319 14.5699 100.071 14.2928C99.8213 14.0145 99.5246 13.7617 99.1832 13.5294C98.8405 13.2983 98.4723 13.0635 98.0776 12.8228C97.1851 12.3049 96.3605 11.8016 95.6037 11.3128C94.8456 10.8228 94.1869 10.3001 93.6262 9.74596C93.0656 9.19181 92.6248 8.57838 92.3039 7.90325C91.9818 7.22812 91.8207 6.42836 91.8207 5.50398C91.8207 4.71028 91.9612 3.97949 92.2409 3.31404C92.5219 2.64979 92.936 2.07145 93.4858 1.58143C94.0367 1.09263 94.7064 0.709084 95.4935 0.432013C96.283 0.154942 97.1851 0.0170097 98.2023 0.0170097C99.5307 0.0170097 100.671 0.288033 101.627 0.833706C102.581 1.37938 103.225 2.14162 103.557 3.12045C102.447 3.602 101.643 3.34307 100.739 2.6631C100.169 2.2844 99.4895 2.09565 98.7 2.09565C97.6005 2.09565 96.7444 2.36304 96.1316 2.89903C95.5201 3.43503 95.2137 4.19243 95.2137 5.17247C95.2137 5.98553 95.4475 6.65946 95.9149 7.19545C96.3811 7.73144 96.9623 8.21662 97.6574 8.65098C98.3525 9.08534 99.1105 9.50155 99.9303 9.89841C100.75 10.2953 101.507 10.7574 102.202 11.285C102.898 11.8113 103.478 12.4441 103.946 13.1833C104.413 13.9226 104.646 14.847 104.646 15.9553C104.646 16.824 104.48 17.6274 104.148 18.3678C103.816 19.1071 103.339 19.7435 102.715 20.2795C102.093 20.8155 101.331 21.2365 100.428 21.5414C99.5246 21.8463 98.5026 22 97.3619 22C95.8882 22 94.5962 21.6745 93.4858 21.0284C92.3753 20.3811 91.5616 19.4568 91.0433 18.2565C91.9418 17.8911 92.7156 17.706 93.5378 18.3037C93.8708 18.5457 94.1481 18.8494 94.4981 19.0877Z" fill="#2B3078"/>
<path d="M133.818 37.5245V32.8391C133.821 32.6264 133.81 32.4161 133.787 32.212C133.766 32.0078 133.722 31.8111 133.657 31.6229C133.59 31.436 133.494 31.2564 133.366 31.0904C133.194 30.8482 132.967 30.6711 132.685 30.5567C132.403 30.4436 132.074 30.387 131.695 30.3895C131.399 30.3931 131.144 30.435 130.923 30.5186C130.703 30.601 130.521 30.703 130.37 30.8248C130.221 30.9441 130.106 31.0634 130.022 31.1802C129.939 31.297 129.884 31.3905 129.859 31.4606V30.542H128.514V37.5245H129.859V33.2216C129.856 33.0765 129.867 32.9154 129.888 32.7444C129.907 32.571 129.951 32.4001 130.019 32.2329C130.085 32.0644 130.187 31.9131 130.324 31.7803C130.44 31.6684 130.571 31.586 130.717 31.527C130.863 31.4655 131.036 31.436 131.242 31.436C131.542 31.4372 131.776 31.4864 131.948 31.5799C132.12 31.6746 132.243 31.8012 132.323 31.9611C132.403 32.1197 132.453 32.2993 132.471 32.4973C132.491 32.6953 132.502 32.8957 132.499 33.1072V37.5245H133.818ZM125.842 33.4774H122.939C122.938 33.4651 122.939 33.4073 122.94 33.304C122.945 33.1995 122.957 33.0679 122.98 32.908C123.003 32.7506 123.045 32.5821 123.105 32.4075C123.165 32.2329 123.25 32.0718 123.361 31.918C123.473 31.7668 123.618 31.6463 123.799 31.5577C123.977 31.4655 124.198 31.4249 124.46 31.436C124.696 31.4421 124.898 31.495 125.059 31.5897C125.223 31.6881 125.353 31.8135 125.455 31.9648C125.557 32.1173 125.635 32.2771 125.689 32.4456C125.743 32.6165 125.782 32.7789 125.803 32.9314C125.823 33.0839 125.836 33.2105 125.84 33.3089C125.842 33.4097 125.845 33.4675 125.842 33.4774ZM127.176 34.4095V34.3456V34.1943V34.0148C127.177 33.8303 127.168 33.6176 127.148 33.3716C127.128 33.1257 127.088 32.865 127.03 32.592C126.97 32.3177 126.879 32.0496 126.76 31.7889C126.64 31.527 126.482 31.2909 126.281 31.0769C126.081 30.8678 125.832 30.6994 125.535 30.5727C125.235 30.4485 124.876 30.387 124.46 30.3895C124.035 30.3907 123.663 30.4546 123.352 30.5776C123.039 30.7018 122.773 30.8678 122.557 31.0757C122.342 31.2847 122.163 31.5208 122.027 31.7803C121.891 32.0386 121.784 32.3091 121.711 32.5858C121.638 32.8637 121.585 33.1306 121.558 33.3913C121.531 33.6508 121.516 33.8844 121.519 34.091C121.516 34.2841 121.528 34.5055 121.558 34.7526C121.585 34.9974 121.638 35.2519 121.717 35.5175C121.795 35.7819 121.908 36.0402 122.06 36.2886C122.21 36.5395 122.407 36.7657 122.648 36.965C122.893 37.1654 123.192 37.3265 123.55 37.4433C123.908 37.5626 124.331 37.6241 124.824 37.6266C125.144 37.6241 125.425 37.5995 125.668 37.5516C125.912 37.5061 126.116 37.4483 126.282 37.3843C126.449 37.3204 126.577 37.2601 126.67 37.2072C126.762 37.1519 126.817 37.1175 126.835 37.1027L127.023 35.8779C127.005 35.8926 126.953 35.9332 126.864 35.9984C126.778 36.0623 126.655 36.1336 126.494 36.2099C126.333 36.2874 126.129 36.3501 125.889 36.4017C125.648 36.4546 125.364 36.4755 125.038 36.4645C124.65 36.4558 124.328 36.3993 124.072 36.2935C123.814 36.1878 123.61 36.0562 123.458 35.8951C123.306 35.734 123.191 35.5667 123.116 35.3933C123.041 35.2187 122.993 35.0588 122.969 34.9113C122.947 34.7649 122.938 34.6518 122.939 34.5755V34.4501V34.4095H127.176ZM120.003 28.0517H118.695V37.5245H120.003V28.0517ZM115.899 33.4774H112.995C112.993 33.4651 112.995 33.4073 112.996 33.304C113.001 33.1995 113.013 33.0679 113.036 32.908C113.059 32.7506 113.102 32.5821 113.161 32.4075C113.221 32.2329 113.308 32.0718 113.418 31.918C113.529 31.7668 113.673 31.6463 113.854 31.5577C114.032 31.4655 114.255 31.4249 114.516 31.436C114.752 31.4421 114.953 31.495 115.116 31.5897C115.278 31.6881 115.411 31.8135 115.51 31.9648C115.613 32.1173 115.691 32.2771 115.746 32.4456C115.801 32.6165 115.838 32.7789 115.859 32.9314C115.88 33.0839 115.892 33.2105 115.896 33.3089C115.899 33.4097 115.9 33.4675 115.899 33.4774ZM117.23 34.4095V34.3456V34.1943V34.0148C117.232 33.8303 117.225 33.6176 117.204 33.3716C117.185 33.1257 117.145 32.865 117.086 32.592C117.025 32.3177 116.935 32.0496 116.817 31.7889C116.697 31.527 116.537 31.2909 116.336 31.0769C116.137 30.8678 115.888 30.6994 115.59 30.5727C115.291 30.4485 114.933 30.387 114.516 30.3895C114.09 30.3907 113.719 30.4546 113.407 30.5776C113.096 30.7018 112.829 30.8678 112.614 31.0757C112.398 31.2847 112.22 31.5208 112.084 31.7803C111.947 32.0386 111.841 32.3091 111.767 32.5858C111.695 32.8637 111.642 33.1306 111.615 33.3913C111.587 33.6508 111.573 33.8844 111.575 34.091C111.573 34.2841 111.585 34.5055 111.615 34.7526C111.642 34.9974 111.695 35.2519 111.774 35.5175C111.851 35.7819 111.964 36.0402 112.115 36.2886C112.266 36.5395 112.463 36.7657 112.706 36.965C112.949 37.1654 113.248 37.3265 113.607 37.4433C113.963 37.5626 114.388 37.6241 114.881 37.6266C115.201 37.6241 115.481 37.5995 115.725 37.5516C115.967 37.5061 116.173 37.4483 116.338 37.3843C116.506 37.3204 116.634 37.2601 116.726 37.2072C116.818 37.1519 116.872 37.1175 116.891 37.1027L117.08 35.8779C117.061 35.8926 117.009 35.9332 116.921 35.9984C116.835 36.0623 116.711 36.1336 116.549 36.2099C116.388 36.2874 116.186 36.3501 115.945 36.4017C115.704 36.4546 115.421 36.4755 115.094 36.4645C114.706 36.4558 114.384 36.3993 114.129 36.2935C113.871 36.1878 113.666 36.0562 113.515 35.8951C113.362 35.734 113.246 35.5667 113.173 35.3933C113.097 35.2187 113.05 35.0588 113.027 34.9113C113.004 34.7649 112.993 34.6518 112.995 34.5755V34.4501V34.4095H117.23ZM111.166 30.542H109.858L108.363 35.9541L106.842 30.542H105.484L107.671 37.4987L107.571 37.9709C107.545 38.1099 107.504 38.2353 107.445 38.3484C107.387 38.4616 107.308 38.5513 107.21 38.6202C107.109 38.6879 106.988 38.7235 106.842 38.7247C106.664 38.7235 106.506 38.7001 106.368 38.6633C106.231 38.6227 106.122 38.5833 106.045 38.5452C105.966 38.5046 105.926 38.4837 105.924 38.4825L106.062 39.6052C106.064 39.6089 106.11 39.6323 106.2 39.6717C106.292 39.7122 106.423 39.7504 106.59 39.786C106.756 39.8241 106.952 39.8389 107.181 39.8352C107.464 39.834 107.703 39.7823 107.895 39.6766C108.085 39.5757 108.245 39.4331 108.373 39.2523C108.501 39.0691 108.61 38.8588 108.699 38.6178C108.79 38.378 108.874 38.1209 108.953 37.843L111.166 30.542ZM104.61 37.5245V32.8391C104.611 32.6264 104.602 32.4161 104.579 32.212C104.558 32.0078 104.513 31.8111 104.449 31.6229C104.381 31.436 104.286 31.2564 104.157 31.0904C103.985 30.8482 103.76 30.6711 103.477 30.5567C103.193 30.4436 102.865 30.387 102.485 30.3895C102.19 30.3931 101.934 30.435 101.715 30.5186C101.496 30.601 101.313 30.703 101.162 30.8248C101.013 30.9441 100.898 31.0634 100.814 31.1802C100.73 31.297 100.676 31.3905 100.651 31.4606V30.542H99.3053V37.5245H100.651V33.2216C100.648 33.0765 100.659 32.9154 100.68 32.7444C100.699 32.571 100.743 32.4001 100.809 32.2329C100.877 32.0644 100.98 31.9131 101.116 31.7803C101.233 31.6684 101.363 31.586 101.509 31.527C101.654 31.4655 101.828 31.436 102.033 31.436C102.332 31.4372 102.567 31.4864 102.739 31.5799C102.911 31.6746 103.035 31.8012 103.113 31.9611C103.193 32.1197 103.244 32.2993 103.262 32.4973C103.284 32.6953 103.294 32.8957 103.29 33.1072V37.5245H104.61ZM96.6342 33.4774H93.7305C93.7281 33.4651 93.7305 33.4073 93.7329 33.304C93.7366 33.1995 93.7487 33.0679 93.7717 32.908C93.7947 32.7506 93.8371 32.5821 93.8952 32.4075C93.9569 32.2329 94.0429 32.0718 94.1531 31.918C94.2645 31.7668 94.4086 31.6463 94.589 31.5577C94.767 31.4655 94.9898 31.4249 95.2514 31.436C95.4875 31.4421 95.6885 31.495 95.8507 31.5897C96.0142 31.6881 96.1462 31.8135 96.2467 31.9648C96.3484 32.1173 96.4259 32.2771 96.4804 32.4456C96.5361 32.6165 96.5736 32.7789 96.5942 32.9314C96.6148 33.0839 96.6269 33.2105 96.6317 33.3089C96.6342 33.4097 96.6354 33.4675 96.6342 33.4774ZM97.9661 34.4095V34.3456V34.1943V34.0148C97.9685 33.8303 97.96 33.6176 97.9395 33.3716C97.9201 33.1257 97.8801 32.865 97.822 32.592C97.7615 32.3177 97.6707 32.0496 97.552 31.7889C97.4321 31.527 97.2723 31.2909 97.0713 31.0769C96.8727 30.8678 96.6233 30.6994 96.3254 30.5727C96.0263 30.4485 95.6679 30.387 95.2514 30.3895C94.8263 30.3907 94.4546 30.4546 94.1422 30.5776C93.831 30.7018 93.5646 30.8678 93.3491 31.0757C93.1336 31.2847 92.9544 31.5208 92.8187 31.7803C92.6819 32.0386 92.5766 32.3091 92.5027 32.5858C92.4288 32.8637 92.3768 33.1306 92.3501 33.3913C92.3223 33.6508 92.3078 33.8844 92.3102 34.091C92.3078 34.2841 92.3211 34.5055 92.3501 34.7526C92.3768 34.9974 92.4288 35.2519 92.5088 35.5175C92.5863 35.7819 92.7001 36.0402 92.8502 36.2886C93.0004 36.5395 93.1977 36.7657 93.4411 36.965C93.6845 37.1654 93.9836 37.3265 94.342 37.4433C94.698 37.5626 95.123 37.6241 95.6146 37.6266C95.9367 37.6241 96.2164 37.5995 96.4598 37.5516C96.7032 37.5061 96.909 37.4483 97.0737 37.3843C97.2408 37.3204 97.3691 37.2601 97.4612 37.2072C97.5532 37.1519 97.6077 37.1175 97.6271 37.1027L97.816 35.8779C97.7966 35.8926 97.7445 35.9332 97.6561 35.9984C97.5702 36.0623 97.4466 36.1336 97.2856 36.2099C97.1246 36.2874 96.9211 36.3501 96.6802 36.4017C96.4392 36.4546 96.1571 36.4755 95.8289 36.4645C95.4415 36.4558 95.1194 36.3993 94.8639 36.2935C94.606 36.1878 94.4001 36.0562 94.25 35.8951C94.0974 35.734 93.9824 35.5667 93.9085 35.3933C93.8322 35.2187 93.785 35.0588 93.762 34.9113C93.739 34.7649 93.7281 34.6518 93.7305 34.5755V34.4501V34.4095H97.9661ZM89.8267 31.3339C89.8267 31.6377 89.7964 31.8971 89.7323 32.1123C89.6693 32.3263 89.5748 32.5096 89.4501 32.6608C89.3412 32.7998 89.2237 32.9092 89.0953 32.9892C88.9694 33.0691 88.8471 33.1294 88.7248 33.165C88.6049 33.2007 88.4984 33.224 88.4076 33.2351C88.318 33.245 88.255 33.2499 88.2175 33.2486H86.8105V29.3663H88.2175C88.3168 29.3651 88.4342 29.3737 88.5674 29.3946C88.7042 29.4167 88.8471 29.461 88.9912 29.5286C89.1353 29.5987 89.2721 29.7033 89.3969 29.8459C89.5252 29.9886 89.6281 30.1816 89.7056 30.4227C89.7843 30.6625 89.8255 30.9674 89.8267 31.3339ZM91.4226 31.3339C91.4214 30.8174 91.3621 30.3759 91.2422 30.0058C91.126 29.6344 90.9625 29.3245 90.753 29.0773C90.5447 28.8289 90.3026 28.6321 90.0253 28.4883C89.7492 28.3431 89.4501 28.2423 89.1317 28.1796C88.8108 28.1181 88.4814 28.0886 88.1424 28.091H85.2642V37.5245H86.8105V34.5251H88.1933C88.4657 34.5264 88.7394 34.5091 89.0142 34.471C89.2879 34.4304 89.5591 34.3505 89.8267 34.2288C90.0943 34.1082 90.3546 33.9238 90.6065 33.6815C90.8596 33.4393 91.0581 33.1195 91.2022 32.7272C91.3475 32.3349 91.4214 31.8689 91.4226 31.3339ZM163.039 35.4438C163.038 35.6135 162.998 35.7647 162.92 35.8951C162.844 36.0267 162.74 36.1398 162.61 36.2345C162.481 36.328 162.333 36.4054 162.172 36.4645C162.081 36.5026 161.989 36.5284 161.896 36.5456C161.801 36.5616 161.721 36.5678 161.657 36.5678C161.432 36.5678 161.23 36.5284 161.046 36.4485C160.867 36.3673 160.723 36.2431 160.616 36.0746C160.506 35.9037 160.452 35.686 160.45 35.4179C160.45 35.3515 160.454 35.2802 160.46 35.204C160.468 35.1252 160.482 35.0552 160.5 34.9974C160.565 34.7846 160.678 34.6112 160.844 34.4772C161.007 34.3431 161.21 34.246 161.456 34.1833C161.701 34.1205 161.977 34.091 162.285 34.091C162.426 34.091 162.552 34.0959 162.664 34.1107C162.78 34.1218 162.869 34.1353 162.937 34.1476C163.003 34.1587 163.038 34.1648 163.039 34.1673V35.4438ZM164.384 37.5245V32.9424C164.387 32.6375 164.37 32.3755 164.338 32.1566C164.304 31.9365 164.246 31.741 164.163 31.5688C164.078 31.3942 163.959 31.2269 163.807 31.0646C163.604 30.8518 163.334 30.6821 162.992 30.5567C162.648 30.4313 162.229 30.3649 161.732 30.3624C161.437 30.3649 161.177 30.3895 160.95 30.435C160.726 30.4792 160.536 30.5346 160.382 30.5924C160.232 30.6526 160.117 30.7055 160.04 30.751C159.962 30.7965 159.922 30.8211 159.922 30.8223L159.682 32.0484C159.682 32.0435 159.721 32.0115 159.796 31.9525C159.87 31.891 159.98 31.8209 160.129 31.7373C160.278 31.6573 160.46 31.5836 160.68 31.5208C160.9 31.4569 161.155 31.4175 161.443 31.4102C161.805 31.4114 162.098 31.452 162.321 31.5331C162.541 31.6106 162.702 31.7201 162.8 31.8566C162.89 31.9734 162.95 32.0927 162.984 32.2144C163.018 32.3374 163.038 32.4542 163.039 32.5674C163.041 32.6805 163.041 32.7789 163.039 32.865V33.2216C163.038 33.2216 163.003 33.2154 162.935 33.2056C162.865 33.1945 162.772 33.1859 162.654 33.1749C162.534 33.165 162.401 33.1589 162.247 33.1589C161.985 33.1589 161.721 33.1749 161.457 33.213C161.192 33.2499 160.936 33.3114 160.691 33.3962C160.444 33.4798 160.218 33.5954 160.012 33.7356C159.805 33.8758 159.629 34.0504 159.481 34.257C159.366 34.4292 159.279 34.5965 159.222 34.7649C159.163 34.9309 159.127 35.0822 159.107 35.2199C159.087 35.3589 159.078 35.472 159.079 35.5594C159.078 35.7032 159.095 35.8656 159.13 36.0439C159.163 36.221 159.222 36.4017 159.306 36.58C159.389 36.7608 159.504 36.9293 159.652 37.083C159.8 37.2367 159.988 37.3622 160.213 37.4606C160.438 37.5589 160.709 37.6143 161.028 37.6266C161.368 37.6327 161.669 37.5946 161.936 37.511C162.201 37.4286 162.433 37.3118 162.631 37.1593C162.828 37.0043 162.993 36.8248 163.127 36.6182V37.0265C163.125 37.0929 163.13 37.1593 163.139 37.2269C163.15 37.297 163.179 37.356 163.228 37.4101C163.268 37.4519 163.317 37.4802 163.379 37.4962C163.44 37.511 163.495 37.5196 163.55 37.522C163.604 37.5245 163.644 37.5245 163.667 37.5245H164.384ZM159.01 31.9709L158.821 30.6957C158.756 30.6526 158.7 30.6182 158.654 30.5924C158.608 30.5678 158.565 30.5456 158.52 30.5284C158.476 30.5112 158.426 30.4952 158.369 30.478C158.295 30.4583 158.231 30.446 158.176 30.4374C158.12 30.4313 158.059 30.4264 157.992 30.4264C157.879 30.4251 157.769 30.4337 157.665 30.446C157.561 30.4608 157.458 30.4903 157.36 30.5358C157.262 30.5776 157.166 30.6428 157.074 30.7338C156.97 30.8334 156.884 30.933 156.816 31.0339C156.748 31.1322 156.695 31.2245 156.658 31.3056C156.621 31.3868 156.597 31.4458 156.584 31.4864V30.542H155.239V37.5245H156.584V33.5549C156.583 33.4331 156.586 33.3015 156.592 33.1527C156.598 33.0052 156.62 32.8539 156.65 32.6953C156.683 32.5378 156.736 32.3804 156.81 32.2267C156.882 32.1013 156.97 31.9881 157.075 31.891C157.181 31.7914 157.307 31.7114 157.45 31.6524C157.594 31.5946 157.758 31.5626 157.942 31.5626C158.166 31.5651 158.365 31.6008 158.537 31.6758C158.71 31.7508 158.867 31.848 159.01 31.9709ZM152.366 35.4438C152.364 35.6135 152.324 35.7647 152.246 35.8951C152.171 36.0267 152.067 36.1398 151.937 36.2345C151.807 36.328 151.66 36.4054 151.499 36.4645C151.41 36.5026 151.318 36.5284 151.223 36.5456C151.128 36.5616 151.049 36.5678 150.984 36.5678C150.76 36.5678 150.556 36.5284 150.373 36.4485C150.194 36.3673 150.049 36.2431 149.942 36.0746C149.833 35.9037 149.78 35.686 149.778 35.4179C149.778 35.3515 149.781 35.2802 149.787 35.204C149.796 35.1252 149.809 35.0552 149.827 34.9974C149.893 34.7846 150.006 34.6112 150.171 34.4772C150.335 34.3431 150.537 34.246 150.783 34.1833C151.027 34.1205 151.304 34.091 151.612 34.091C151.752 34.091 151.878 34.0959 151.991 34.1107C152.106 34.1218 152.197 34.1353 152.263 34.1476C152.331 34.1587 152.364 34.1648 152.366 34.1673V35.4438ZM153.71 37.5245V32.9424C153.714 32.6375 153.697 32.3755 153.666 32.1566C153.632 31.9365 153.572 31.741 153.489 31.5688C153.405 31.3942 153.287 31.2269 153.133 31.0646C152.932 30.8518 152.662 30.6821 152.318 30.5567C151.975 30.4313 151.555 30.3649 151.059 30.3624C150.763 30.3649 150.504 30.3895 150.278 30.435C150.054 30.4792 149.862 30.5346 149.711 30.5924C149.56 30.6526 149.445 30.7055 149.366 30.751C149.29 30.7965 149.25 30.8211 149.25 30.8223L149.01 32.0484C149.01 32.0435 149.047 32.0115 149.124 31.9525C149.196 31.891 149.308 31.8209 149.457 31.7373C149.606 31.6573 149.787 31.5836 150.008 31.5208C150.228 31.4569 150.481 31.4175 150.77 31.4102C151.132 31.4114 151.426 31.452 151.648 31.5331C151.867 31.6106 152.03 31.7201 152.127 31.8566C152.217 31.9734 152.278 32.0927 152.312 32.2144C152.346 32.3374 152.364 32.4542 152.366 32.5674C152.369 32.6805 152.369 32.7789 152.366 32.865V33.2216C152.364 33.2216 152.331 33.2154 152.262 33.2056C152.193 33.1945 152.101 33.1859 151.981 33.1749C151.861 33.165 151.727 33.1589 151.574 33.1589C151.313 33.1589 151.049 33.1749 150.785 33.213C150.519 33.2499 150.263 33.3114 150.019 33.3962C149.77 33.4798 149.544 33.5954 149.339 33.7356C149.132 33.8758 148.955 34.0504 148.809 34.257C148.694 34.4292 148.607 34.5965 148.55 34.7649C148.492 34.9309 148.453 35.0822 148.435 35.2199C148.413 35.3589 148.406 35.472 148.407 35.5594C148.406 35.7032 148.421 35.8656 148.458 36.0439C148.492 36.221 148.55 36.4017 148.633 36.58C148.717 36.7608 148.833 36.9293 148.978 37.083C149.127 37.2367 149.314 37.3622 149.54 37.4606C149.764 37.5589 150.037 37.6143 150.355 37.6266C150.694 37.6327 150.997 37.5946 151.262 37.511C151.528 37.4286 151.761 37.3118 151.958 37.1593C152.154 37.0043 152.32 36.8248 152.455 36.6182V37.0265C152.452 37.0929 152.456 37.1593 152.467 37.2269C152.478 37.297 152.507 37.356 152.555 37.4101C152.594 37.4519 152.645 37.4802 152.705 37.4962C152.767 37.511 152.823 37.5196 152.877 37.522C152.932 37.5245 152.972 37.5245 152.995 37.5245H153.71ZM146.189 38.1111C146.192 38.271 146.15 38.4099 146.064 38.5268C145.978 38.6436 145.864 38.742 145.716 38.8182C145.572 38.8957 145.41 38.9498 145.237 38.9891C145.064 39.0248 144.888 39.0433 144.717 39.0433C144.384 39.0433 144.096 39.0039 143.856 38.9227C143.613 38.844 143.427 38.7321 143.295 38.5907C143.165 38.4468 143.097 38.2808 143.096 38.0853C143.097 37.9512 143.12 37.8307 143.167 37.7225C143.211 37.6143 143.263 37.522 143.321 37.4433C143.381 37.3671 143.433 37.3093 143.477 37.2663C143.522 37.2269 143.546 37.2048 143.549 37.2048H143.659H143.94H144.317H144.717C145.01 37.2121 145.254 37.2417 145.446 37.2945C145.636 37.3486 145.788 37.4163 145.897 37.5011C146.003 37.586 146.081 37.6795 146.124 37.7864C146.169 37.8897 146.19 37.9992 146.189 38.1111ZM146.025 32.8391C146.025 33.1527 145.972 33.4183 145.87 33.6422C145.767 33.8623 145.615 34.0332 145.409 34.1513C145.203 34.2706 144.947 34.3308 144.641 34.3333C144.382 34.3308 144.16 34.2669 143.976 34.1414C143.793 34.016 143.653 33.8414 143.557 33.6176C143.46 33.3938 143.41 33.1355 143.41 32.8391C143.41 32.5305 143.456 32.2698 143.546 32.0545C143.638 31.8393 143.779 31.6758 143.969 31.5651C144.158 31.4544 144.399 31.4003 144.692 31.4102C144.943 31.4175 145.153 31.463 145.325 31.5454C145.497 31.6291 145.633 31.7397 145.736 31.8762C145.839 32.0115 145.914 32.1628 145.957 32.3288C146.003 32.4948 146.026 32.6645 146.025 32.8391ZM147.533 38.0471C147.544 37.3991 147.315 36.917 146.852 36.6096C146.39 36.2984 145.707 36.1447 144.806 36.1459C144.703 36.1459 144.582 36.1496 144.441 36.1533C144.301 36.1558 144.156 36.1546 144.009 36.1472C143.859 36.141 143.722 36.1263 143.595 36.0992C143.464 36.0709 143.362 36.0291 143.283 35.9701C143.203 35.9098 143.161 35.8299 143.159 35.7254C143.161 35.6061 143.201 35.5139 143.283 35.4524C143.362 35.3896 143.473 35.3491 143.613 35.3245C143.756 35.3023 143.918 35.29 144.103 35.29C144.286 35.2888 144.482 35.2888 144.692 35.29C145.265 35.2888 145.748 35.188 146.146 34.99C146.545 34.7944 146.847 34.5128 147.056 34.1414C147.263 33.7737 147.367 33.3298 147.369 32.8133V30.542H146.69C146.637 30.5383 146.577 30.5383 146.517 30.5432C146.459 30.5456 146.398 30.5604 146.336 30.5862C146.276 30.6145 146.218 30.6625 146.163 30.7338C146.115 30.8051 146.084 30.8801 146.075 30.9588C146.064 31.0351 146.06 31.1015 146.063 31.1544V31.2441C146.063 31.2417 146.046 31.2146 146.008 31.1593C145.972 31.1027 145.911 31.0363 145.829 30.9564C145.745 30.8752 145.635 30.7953 145.498 30.7153C145.36 30.633 145.191 30.5653 144.99 30.5112C144.789 30.4559 144.549 30.4288 144.277 30.4264C144.101 30.4251 143.915 30.446 143.718 30.4891C143.521 30.5309 143.329 30.6059 143.14 30.708C142.95 30.8125 142.778 30.9539 142.624 31.1359C142.47 31.3155 142.348 31.5454 142.258 31.8209C142.17 32.0976 142.126 32.4272 142.127 32.8133C142.13 33.0789 142.166 33.3138 142.233 33.518C142.299 33.7221 142.383 33.898 142.482 34.0443C142.58 34.1906 142.681 34.3099 142.779 34.4034C142.878 34.4968 142.962 34.5669 143.028 34.6112C143.096 34.6567 143.131 34.6776 143.134 34.6776C143.129 34.6752 143.088 34.6813 143.004 34.6973C142.919 34.7108 142.815 34.7416 142.692 34.7871C142.568 34.8313 142.442 34.8965 142.319 34.9863C142.195 35.0748 142.09 35.1953 142.006 35.3429C141.923 35.4929 141.882 35.6799 141.877 35.9037C141.868 36.0759 141.886 36.221 141.931 36.3415C141.975 36.4608 142.034 36.5616 142.109 36.6391C142.184 36.7202 142.267 36.7817 142.354 36.8285C142.442 36.8752 142.526 36.9121 142.606 36.9367C142.603 36.9367 142.578 36.9514 142.531 36.9846C142.482 37.0129 142.422 37.0633 142.35 37.1285C142.276 37.1962 142.206 37.281 142.135 37.3868C142.061 37.4925 142 37.618 141.952 37.7655C141.903 37.9131 141.879 38.084 141.877 38.2771C141.879 38.6116 141.988 38.9092 142.206 39.1675C142.424 39.4245 142.745 39.6298 143.165 39.7762C143.589 39.9225 144.106 39.9988 144.717 40C145.095 40 145.449 39.9631 145.779 39.8881C146.111 39.8118 146.405 39.695 146.663 39.5376C146.919 39.3777 147.125 39.1748 147.277 38.9289C147.43 38.6829 147.514 38.3878 147.533 38.0471ZM139.47 38.1111C139.473 38.271 139.432 38.4099 139.345 38.5268C139.259 38.6436 139.144 38.742 138.997 38.8182C138.853 38.8957 138.692 38.9498 138.518 38.9891C138.343 39.0248 138.17 39.0433 137.998 39.0433C137.665 39.0433 137.378 39.0039 137.137 38.9227C136.894 38.844 136.708 38.7321 136.576 38.5907C136.446 38.4468 136.378 38.2808 136.377 38.0853C136.378 37.9512 136.402 37.8307 136.448 37.7225C136.492 37.6143 136.544 37.522 136.602 37.4433C136.662 37.3671 136.714 37.3093 136.758 37.2663C136.804 37.2269 136.827 37.2048 136.83 37.2048H136.94H137.221H137.599H137.998C138.291 37.2121 138.535 37.2417 138.727 37.2945C138.917 37.3486 139.069 37.4163 139.178 37.5011C139.284 37.586 139.362 37.6795 139.407 37.7864C139.45 37.8897 139.471 37.9992 139.47 38.1111ZM139.306 32.8391C139.306 33.1527 139.253 33.4183 139.151 33.6422C139.048 33.8623 138.894 34.0332 138.69 34.1513C138.484 34.2706 138.228 34.3308 137.922 34.3333C137.663 34.3308 137.441 34.2669 137.257 34.1414C137.074 34.016 136.934 33.8414 136.838 33.6176C136.741 33.3938 136.692 33.1355 136.692 32.8391C136.692 32.5305 136.738 32.2698 136.827 32.0545C136.919 31.8393 137.06 31.6758 137.251 31.5651C137.439 31.4544 137.68 31.4003 137.973 31.4102C138.225 31.4175 138.434 31.463 138.606 31.5454C138.777 31.6291 138.914 31.7397 139.017 31.8762C139.118 32.0115 139.195 32.1628 139.238 32.3288C139.284 32.4948 139.307 32.6645 139.306 32.8391ZM140.814 38.0471C140.824 37.3991 140.596 36.917 140.133 36.6096C139.671 36.2984 138.988 36.1447 138.087 36.1459C137.984 36.1459 137.861 36.1496 137.722 36.1533C137.581 36.1558 137.436 36.1546 137.29 36.1472C137.141 36.141 137.003 36.1263 136.876 36.0992C136.745 36.0709 136.643 36.0291 136.563 35.9701C136.484 35.9098 136.441 35.8299 136.44 35.7254C136.441 35.6061 136.481 35.5139 136.563 35.4524C136.643 35.3896 136.754 35.3491 136.894 35.3245C137.037 35.3023 137.199 35.29 137.384 35.29C137.567 35.2888 137.763 35.2888 137.973 35.29C138.544 35.2888 139.029 35.188 139.427 34.99C139.824 34.7944 140.129 34.5128 140.336 34.1414C140.545 33.7737 140.649 33.3298 140.65 32.8133V30.542H139.972C139.916 30.5383 139.858 30.5383 139.798 30.5432C139.74 30.5456 139.678 30.5604 139.617 30.5862C139.557 30.6145 139.499 30.6625 139.444 30.7338C139.396 30.8051 139.367 30.8801 139.356 30.9588C139.345 31.0351 139.341 31.1015 139.342 31.1544V31.2441C139.342 31.2417 139.327 31.2146 139.289 31.1593C139.253 31.1027 139.192 31.0363 139.111 30.9564C139.026 30.8752 138.916 30.7953 138.781 30.7153C138.641 30.633 138.472 30.5653 138.271 30.5112C138.07 30.4559 137.83 30.4288 137.558 30.4264C137.382 30.4251 137.197 30.446 136.999 30.4891C136.802 30.5309 136.609 30.6059 136.421 30.708C136.23 30.8125 136.059 30.9539 135.906 31.1359C135.75 31.3155 135.629 31.5454 135.539 31.8209C135.451 32.0976 135.407 32.4272 135.41 32.8133C135.411 33.0789 135.447 33.3138 135.514 33.518C135.58 33.7221 135.665 33.898 135.763 34.0443C135.861 34.1906 135.963 34.3099 136.061 34.4034C136.159 34.4968 136.243 34.5669 136.31 34.6112C136.377 34.6567 136.412 34.6776 136.413 34.6776C136.41 34.6752 136.368 34.6813 136.285 34.6973C136.2 34.7108 136.096 34.7416 135.973 34.7871C135.849 34.8313 135.723 34.8965 135.6 34.9863C135.476 35.0748 135.372 35.1953 135.287 35.3429C135.204 35.4929 135.162 35.6799 135.158 35.9037C135.149 36.0759 135.169 36.221 135.212 36.3415C135.256 36.4608 135.314 36.5616 135.39 36.6391C135.465 36.7202 135.548 36.7817 135.635 36.8285C135.723 36.8752 135.807 36.9121 135.887 36.9367C135.884 36.9367 135.86 36.9514 135.812 36.9846C135.763 37.0129 135.703 37.0633 135.631 37.1285C135.557 37.1962 135.486 37.281 135.414 37.3868C135.342 37.4925 135.281 37.618 135.233 37.7655C135.184 37.9131 135.16 38.084 135.158 38.2771C135.16 38.6116 135.269 38.9092 135.486 39.1675C135.704 39.4245 136.025 39.6298 136.446 39.7762C136.869 39.9225 137.387 39.9988 137.998 40C138.376 40 138.73 39.9631 139.06 39.8881C139.392 39.8118 139.686 39.695 139.944 39.5376C140.2 39.3777 140.406 39.1748 140.558 38.9289C140.712 38.6829 140.794 38.3878 140.814 38.0471ZM81.2623 37.5245V32.8391C81.2635 32.6264 81.2526 32.4161 81.2296 32.212C81.209 32.0078 81.1654 31.8111 81.1 31.6229C81.0334 31.436 80.9366 31.2564 80.8094 31.0904C80.6375 30.8482 80.4111 30.6711 80.1277 30.5567C79.8456 30.4436 79.5162 30.387 79.1372 30.3895C78.8418 30.3931 78.5863 30.435 78.3671 30.5186C78.1468 30.601 77.9639 30.703 77.8138 30.8248C77.6648 30.9441 77.5498 31.0634 77.4663 31.1802C77.3815 31.297 77.327 31.3905 77.3016 31.4606V30.542H75.9575V37.5245H77.3016V33.2216C77.3004 33.0765 77.3113 32.9154 77.3318 32.7444C77.35 32.571 77.3948 32.4001 77.4614 32.2329C77.528 32.0644 77.6309 31.9131 77.7678 31.7803C77.8852 31.6684 78.0148 31.586 78.1613 31.527C78.3054 31.4655 78.4797 31.436 78.6844 31.436C78.9847 31.4372 79.2196 31.4864 79.3915 31.5799C79.5623 31.6746 79.687 31.8012 79.7657 31.9611C79.8456 32.1197 79.8952 32.2993 79.9146 32.4973C79.9352 32.6953 79.9461 32.8957 79.9425 33.1072V37.5245H81.2623ZM73.0721 35.4438C73.0696 35.6135 73.0297 35.7647 72.9522 35.8951C72.8771 36.0267 72.7718 36.1398 72.6422 36.2345C72.5126 36.328 72.3661 36.4054 72.2051 36.4645C72.1143 36.5026 72.0222 36.5284 71.9278 36.5456C71.8346 36.5616 71.7546 36.5678 71.6892 36.5678C71.4652 36.5678 71.2618 36.5284 71.0802 36.4485C70.8998 36.3673 70.7545 36.2431 70.6479 36.0746C70.5401 35.9037 70.4844 35.686 70.4832 35.4179C70.4832 35.3515 70.4869 35.2802 70.4929 35.204C70.5014 35.1252 70.5135 35.0552 70.5329 34.9974C70.5983 34.7846 70.7109 34.6112 70.8768 34.4772C71.0402 34.3431 71.2436 34.246 71.4882 34.1833C71.734 34.1205 72.0101 34.091 72.3177 34.091C72.4581 34.091 72.5841 34.0959 72.6967 34.1107C72.8129 34.1218 72.9025 34.1353 72.9691 34.1476C73.0369 34.1587 73.0696 34.1648 73.0721 34.1673V35.4438ZM74.4173 37.5245V32.9424C74.4185 32.6375 74.4016 32.3755 74.3713 32.1566C74.3374 31.9365 74.2793 31.741 74.1945 31.5688C74.111 31.3942 73.9911 31.2269 73.8385 31.0646C73.6375 30.8518 73.3675 30.6821 73.0236 30.5567C72.6797 30.4313 72.2608 30.3649 71.7643 30.3624C71.4689 30.3649 71.2097 30.3895 70.9833 30.435C70.7593 30.4792 70.568 30.5346 70.4154 30.5924C70.2653 30.6526 70.149 30.7055 70.0715 30.751C69.994 30.7965 69.9553 30.8211 69.9553 30.8223L69.7155 32.0484C69.7155 32.0435 69.7543 32.0115 69.8294 31.9525C69.902 31.891 70.0134 31.8209 70.1624 31.7373C70.3113 31.6573 70.4929 31.5836 70.7133 31.5208C70.9325 31.4569 71.1867 31.4175 71.4749 31.4102C71.8382 31.4114 72.1312 31.452 72.354 31.5331C72.5732 31.6106 72.7354 31.7201 72.8335 31.8566C72.9231 31.9734 72.9837 32.0927 73.0176 32.2144C73.0515 32.3374 73.0696 32.4542 73.0721 32.5674C73.0745 32.6805 73.0745 32.7789 73.0721 32.865V33.2216C73.0696 33.2216 73.0369 33.2154 72.9667 33.2056C72.8977 33.1945 72.8057 33.1859 72.687 33.1749C72.5671 33.165 72.4327 33.1589 72.2801 33.1589C72.0186 33.1589 71.7546 33.1749 71.4907 33.213C71.2243 33.2499 70.9688 33.3114 70.7242 33.3962C70.476 33.4798 70.2495 33.5954 70.0449 33.7356C69.8378 33.8758 69.6623 34.0504 69.5145 34.257C69.3995 34.4292 69.3111 34.5965 69.2542 34.7649C69.1961 34.9309 69.1586 35.0822 69.1404 35.2199C69.1186 35.3589 69.1101 35.472 69.1125 35.5594C69.1101 35.7032 69.1271 35.8656 69.1622 36.0439C69.1961 36.221 69.2542 36.4017 69.339 36.58C69.4225 36.7608 69.5376 36.9293 69.6841 37.083C69.833 37.2367 70.0195 37.3622 70.2459 37.4606C70.4699 37.5589 70.7424 37.6143 71.0608 37.6266C71.3999 37.6327 71.7014 37.5946 71.9677 37.511C72.2341 37.4286 72.4666 37.3118 72.6628 37.1593C72.8601 37.0043 73.026 36.8248 73.1604 36.6182V37.0265C73.158 37.0929 73.1617 37.1593 73.1726 37.2269C73.1834 37.297 73.2125 37.356 73.2609 37.4101C73.2997 37.4519 73.3505 37.4802 73.4111 37.4962C73.4716 37.511 73.5285 37.5196 73.583 37.522C73.6375 37.5245 73.6775 37.5245 73.7005 37.5245H74.4173ZM66.3651 35.8779C66.3021 35.9627 66.2271 36.0439 66.1375 36.1201C66.0491 36.1988 65.9437 36.2677 65.8251 36.3255C65.6822 36.3944 65.5466 36.4435 65.417 36.4731C65.2862 36.5026 65.1506 36.5161 65.0077 36.5161C64.7353 36.5136 64.5052 36.4509 64.3175 36.3267C64.1299 36.2037 63.9785 36.0291 63.8659 35.8078C63.7509 35.5864 63.6673 35.3269 63.6128 35.0293C63.5608 34.733 63.5293 34.412 63.5256 34.0652C63.522 33.8684 63.5305 33.6557 63.5462 33.4233C63.562 33.1908 63.5959 32.9584 63.6455 32.7248C63.6988 32.4923 63.7787 32.2796 63.8828 32.0841C63.9894 31.891 64.1323 31.7348 64.3103 31.6168C64.4883 31.4987 64.7123 31.4372 64.9823 31.436C65.222 31.436 65.4267 31.4716 65.5962 31.5417C65.7681 31.6106 65.9074 31.7078 66.0139 31.8307C66.1145 31.9402 66.1871 32.0607 66.2404 32.1947C66.29 32.3312 66.3239 32.4714 66.3421 32.6141C66.359 32.7592 66.3675 32.8957 66.3651 33.031V35.8779ZM67.7104 37.5245V28.0517H66.3651V31.1937C66.3651 31.19 66.3506 31.1617 66.3191 31.1101C66.2852 31.0535 66.2343 30.9884 66.1605 30.9096C66.0854 30.8309 65.9861 30.751 65.8602 30.6711C65.7355 30.5924 65.5805 30.5247 65.3928 30.4706C65.2063 30.419 64.9871 30.3907 64.7317 30.3895C64.3757 30.3907 64.0633 30.4485 63.7932 30.5629C63.522 30.6785 63.2895 30.8334 63.0934 31.0289C62.8984 31.2269 62.7349 31.4495 62.6054 31.6992C62.4734 31.95 62.3681 32.212 62.293 32.4887C62.2155 32.7629 62.161 33.0359 62.1271 33.3052C62.0944 33.5745 62.0799 33.8291 62.0799 34.0652C62.0799 34.4452 62.1065 34.8117 62.1646 35.1658C62.224 35.5175 62.316 35.8459 62.4419 36.1459C62.5703 36.4485 62.7325 36.7092 62.9384 36.933C63.1406 37.1593 63.3888 37.3302 63.6782 37.4519C63.9688 37.5737 64.3078 37.6327 64.6929 37.6266C64.9387 37.6241 65.1627 37.5921 65.3625 37.527C65.5611 37.4606 65.7476 37.3696 65.9195 37.2503C66.0939 37.1334 66.2622 36.992 66.4281 36.8358V37.5245H67.7104ZM59.3821 35.4438C59.3797 35.6135 59.3409 35.7647 59.2634 35.8951C59.1883 36.0267 59.083 36.1398 58.9534 36.2345C58.8239 36.328 58.6774 36.4054 58.5151 36.4645C58.4255 36.5026 58.3323 36.5284 58.239 36.5456C58.1446 36.5616 58.0647 36.5678 57.9993 36.5678C57.7753 36.5678 57.5718 36.5284 57.3902 36.4485C57.2098 36.3673 57.0657 36.2431 56.9591 36.0746C56.849 35.9037 56.7957 35.686 56.7933 35.4179C56.7933 35.3515 56.7969 35.2802 56.8029 35.204C56.8114 35.1252 56.8247 35.0552 56.8429 34.9974C56.9083 34.7846 57.0209 34.6112 57.1868 34.4772C57.3503 34.3431 57.5537 34.246 57.7983 34.1833C58.0441 34.1205 58.3202 34.091 58.6277 34.091C58.7682 34.091 58.8941 34.0959 59.0079 34.1107C59.123 34.1218 59.2126 34.1353 59.2792 34.1476C59.347 34.1587 59.3797 34.1648 59.3821 34.1673V35.4438ZM60.7273 37.5245V32.9424C60.7298 32.6375 60.7128 32.3755 60.6813 32.1566C60.6474 31.9365 60.5893 31.741 60.5058 31.5688C60.421 31.3942 60.3023 31.2269 60.1486 31.0646C59.9488 30.8518 59.6775 30.6821 59.3349 30.5567C58.991 30.4313 58.572 30.3649 58.0756 30.3624C57.7801 30.3649 57.5198 30.3895 57.2933 30.435C57.0693 30.4792 56.8792 30.5346 56.7255 30.5924C56.5753 30.6526 56.4603 30.7055 56.3828 30.751C56.3053 30.7965 56.2653 30.8211 56.2653 30.8223L56.0268 32.0484C56.0268 32.0435 56.0643 32.0115 56.1394 31.9525C56.2133 31.891 56.3234 31.8209 56.4724 31.7373C56.6213 31.6573 56.8029 31.5836 57.0233 31.5208C57.2437 31.4569 57.4968 31.4175 57.7862 31.4102C58.1494 31.4114 58.4412 31.452 58.664 31.5331C58.8844 31.6106 59.0455 31.7201 59.1435 31.8566C59.2343 31.9734 59.2937 32.0927 59.3276 32.2144C59.3615 32.3374 59.3797 32.4542 59.3821 32.5674C59.3845 32.6805 59.3845 32.7789 59.3821 32.865V33.2216C59.3797 33.2216 59.347 33.2154 59.2779 33.2056C59.2089 33.1945 59.1157 33.1859 58.997 33.1749C58.8771 33.165 58.744 33.1589 58.5902 33.1589C58.3286 33.1589 58.0647 33.1749 57.8007 33.213C57.5343 33.2499 57.28 33.3114 57.0342 33.3962C56.7872 33.4798 56.5608 33.5954 56.3549 33.7356C56.1479 33.8758 55.9723 34.0504 55.8246 34.257C55.7095 34.4292 55.6224 34.5965 55.5654 34.7649C55.5073 34.9309 55.4698 35.0822 55.4504 35.2199C55.4286 35.3589 55.4214 35.472 55.4226 35.5594C55.4214 35.7032 55.4371 35.8656 55.4734 36.0439C55.5073 36.221 55.5654 36.4017 55.649 36.58C55.7325 36.7608 55.8488 36.9293 55.9953 37.083C56.1442 37.2367 56.3295 37.3622 56.5559 37.4606C56.7812 37.5589 57.0524 37.6143 57.3708 37.6266C57.7111 37.6327 58.0114 37.5946 58.279 37.511C58.5442 37.4286 58.7766 37.3118 58.974 37.1593C59.1714 37.0043 59.3361 36.8248 59.4705 36.6182V37.0265C59.468 37.0929 59.4729 37.1593 59.4826 37.2269C59.4935 37.297 59.5225 37.356 59.571 37.4101C59.6109 37.4519 59.6606 37.4802 59.7211 37.4962C59.7829 37.511 59.8398 37.5196 59.8931 37.522C59.9488 37.5245 59.9875 37.5245 60.0105 37.5245H60.7273ZM52.8144 34.7034C52.8144 34.958 52.7829 35.1732 52.7224 35.3503C52.6606 35.5261 52.5698 35.6663 52.4499 35.7758C52.3095 35.9135 52.146 36.0094 51.9619 36.0648C51.7755 36.1201 51.5866 36.1546 51.394 36.1632C51.1991 36.1718 51.0187 36.173 50.8528 36.1718H49.5208V33.2732H50.8528C51.0647 33.2708 51.2705 33.2782 51.4715 33.2941C51.675 33.3114 51.8614 33.3507 52.0334 33.4097C52.2041 33.47 52.3518 33.5659 52.4753 33.695C52.5843 33.8143 52.6654 33.957 52.7236 34.1218C52.7853 34.2866 52.8144 34.4796 52.8144 34.7034ZM52.4753 30.6957C52.4729 30.9588 52.4293 31.1765 52.3433 31.345C52.2574 31.5159 52.146 31.6475 52.0116 31.7434C51.8772 31.8418 51.7391 31.9094 51.5926 31.9537C51.4461 31.9968 51.3117 32.025 51.1882 32.0349C51.0647 32.0459 50.9678 32.0496 50.9036 32.0484H49.5208V29.3663H50.9036C50.9581 29.3651 51.0332 29.3663 51.1252 29.3712C51.2197 29.3737 51.3202 29.3848 51.4292 29.4007C51.5357 29.4167 51.6435 29.4438 51.7464 29.4794C51.8481 29.5163 51.9365 29.5692 52.0092 29.6344C52.1678 29.7524 52.284 29.8963 52.3603 30.0648C52.4366 30.2308 52.4753 30.4411 52.4753 30.6957ZM54.4103 34.6776C54.4103 34.4968 54.3933 34.3185 54.3534 34.1402C54.3171 33.9607 54.2541 33.7885 54.1657 33.6237C54.0773 33.4589 53.9574 33.3077 53.8073 33.1712C53.6232 33.0015 53.4198 32.876 53.1994 32.7912C52.9778 32.7051 52.7538 32.6461 52.525 32.6092C52.6788 32.5587 52.8265 32.4948 52.973 32.4186C53.1219 32.3411 53.2588 32.2538 53.3847 32.1542C53.5094 32.0545 53.6172 31.9426 53.7068 31.8184C53.8158 31.6414 53.9042 31.4372 53.9683 31.206C54.0349 30.9736 54.0688 30.7055 54.0712 30.4018C54.0688 30.0562 54.0143 29.7524 53.9054 29.4905C53.7988 29.2286 53.6523 29.0072 53.4694 28.8264C53.2878 28.6457 53.0808 28.5079 52.8519 28.4096C52.5649 28.2804 52.2659 28.1919 51.951 28.1501C51.6386 28.107 51.2972 28.0849 50.9291 28.091H48V37.5245H50.9036C51.1277 37.527 51.3626 37.5196 51.6072 37.5061C51.853 37.4901 52.0975 37.4606 52.3409 37.4114C52.5855 37.3622 52.8204 37.2859 53.0444 37.1839C53.2684 37.0842 53.4719 36.9465 53.6571 36.7719C53.8557 36.569 54.0107 36.3525 54.1197 36.1201C54.2311 35.8877 54.3049 35.6491 54.3497 35.4056C54.3909 35.1609 54.4127 34.9187 54.4103 34.6776ZM199.465 37.5245V32.8391C199.466 32.6264 199.455 32.4161 199.432 32.212C199.412 32.0078 199.367 31.8111 199.303 31.6229C199.236 31.436 199.139 31.2564 199.012 31.0904C198.84 30.8482 198.614 30.6711 198.331 30.5567C198.048 30.4436 197.719 30.387 197.34 30.3895C197.045 30.3931 196.789 30.435 196.569 30.5186C196.35 30.601 196.167 30.703 196.017 30.8248C195.868 30.9441 195.751 31.0634 195.668 31.1802C195.584 31.297 195.53 31.3905 195.504 31.4606V30.542H194.16V37.5245H195.504V33.2216C195.502 33.0765 195.514 32.9154 195.533 32.7444C195.553 32.571 195.596 32.4001 195.663 32.2329C195.731 32.0644 195.834 31.9131 195.969 31.7803C196.087 31.6684 196.218 31.586 196.363 31.527C196.509 31.4655 196.683 31.436 196.888 31.436C197.188 31.4372 197.421 31.4864 197.594 31.5799C197.765 31.6746 197.889 31.8012 197.969 31.9611C198.048 32.1197 198.098 32.2993 198.117 32.4973C198.138 32.6953 198.149 32.8957 198.144 33.1072V37.5245H199.465ZM192.544 30.542H191.212V37.5245H192.544V30.542ZM192.658 28.7539C192.655 28.6186 192.621 28.4981 192.552 28.3973C192.483 28.2964 192.391 28.2177 192.271 28.1624C192.153 28.107 192.018 28.0775 191.866 28.0775C191.713 28.08 191.579 28.112 191.463 28.1759C191.346 28.2386 191.254 28.3222 191.189 28.4243C191.122 28.5264 191.087 28.6371 191.086 28.7539C191.086 28.8904 191.115 29.0134 191.174 29.1204C191.234 29.2286 191.318 29.3122 191.434 29.3737C191.55 29.4352 191.693 29.4671 191.866 29.4696C192.022 29.4671 192.159 29.4352 192.279 29.3737C192.395 29.3122 192.487 29.2286 192.555 29.1204C192.621 29.0134 192.655 28.8904 192.658 28.7539ZM189.646 37.5245V32.865C189.649 32.7026 189.639 32.5268 189.623 32.3337C189.606 32.1406 189.571 31.9451 189.517 31.7508C189.462 31.5516 189.38 31.3647 189.27 31.1863C189.16 31.0068 189.014 30.8518 188.83 30.7203C188.657 30.601 188.469 30.5137 188.263 30.462C188.06 30.4116 187.859 30.387 187.66 30.3895C187.388 30.3907 187.145 30.4288 186.935 30.5014C186.726 30.5727 186.546 30.6625 186.393 30.7719C186.241 30.8826 186.118 30.992 186.02 31.1052C185.922 31.2183 185.848 31.3155 185.798 31.4003C185.747 31.4864 185.718 31.5405 185.712 31.5626C185.704 31.527 185.681 31.4606 185.641 31.3671C185.598 31.2737 185.538 31.1691 185.452 31.0523C185.368 30.9342 185.259 30.8248 185.121 30.7203C185.001 30.6403 184.876 30.5752 184.74 30.5272C184.604 30.478 184.467 30.4411 184.329 30.4202C184.194 30.3993 184.063 30.3895 183.94 30.3895C183.651 30.3907 183.401 30.4313 183.186 30.5075C182.973 30.585 182.794 30.6821 182.648 30.799C182.502 30.9158 182.387 31.0351 182.304 31.1593C182.218 31.2823 182.161 31.3905 182.129 31.4864V30.542H180.797V37.5245H182.129V33.2486C182.132 32.9572 182.152 32.7174 182.197 32.5292C182.241 32.3411 182.299 32.1886 182.373 32.0718C182.443 31.9537 182.522 31.859 182.608 31.7803C182.706 31.6819 182.818 31.6057 182.944 31.5467C183.071 31.4901 183.219 31.4606 183.387 31.4606C183.59 31.4606 183.755 31.4839 183.879 31.5331C184.002 31.5799 184.107 31.6438 184.19 31.7287C184.291 31.8209 184.371 31.9279 184.43 32.0521C184.488 32.1751 184.53 32.3226 184.556 32.4948C184.58 32.667 184.593 32.8723 184.593 33.1072V37.5245H185.901V33.2486C185.897 33.0839 185.902 32.9178 185.917 32.7457C185.93 32.5723 185.968 32.405 186.031 32.2402C186.094 32.0742 186.197 31.9205 186.341 31.7803C186.45 31.6709 186.571 31.5897 186.71 31.5405C186.844 31.4864 186.986 31.4606 187.131 31.4606C187.296 31.4569 187.444 31.4741 187.578 31.5073C187.713 31.5405 187.836 31.6094 187.949 31.7164C188.044 31.8135 188.111 31.9057 188.155 31.9918C188.201 32.0779 188.228 32.148 188.239 32.2009C188.255 32.2624 188.272 32.3411 188.288 32.4395C188.303 32.5354 188.314 32.6436 188.324 32.7592C188.335 32.876 188.339 32.9904 188.339 33.1072V37.5245H189.646ZM177.886 35.4438C177.884 35.6135 177.844 35.7647 177.768 35.8951C177.691 36.0267 177.587 36.1398 177.457 36.2345C177.327 36.328 177.18 36.4054 177.019 36.4645C176.929 36.5026 176.838 36.5284 176.742 36.5456C176.649 36.5616 176.57 36.5678 176.504 36.5678C176.28 36.5678 176.076 36.5284 175.895 36.4485C175.714 36.3673 175.57 36.2431 175.464 36.0746C175.353 35.9037 175.3 35.686 175.298 35.4179C175.298 35.3515 175.301 35.2802 175.309 35.204C175.316 35.1252 175.329 35.0552 175.347 34.9974C175.413 34.7846 175.526 34.6112 175.691 34.4772C175.855 34.3431 176.058 34.246 176.303 34.1833C176.548 34.1205 176.825 34.091 177.133 34.091C177.273 34.091 177.398 34.0959 177.512 34.1107C177.627 34.1218 177.717 34.1353 177.785 34.1476C177.851 34.1587 177.884 34.1648 177.886 34.1673V35.4438ZM179.232 37.5245V32.9424C179.234 32.6375 179.217 32.3755 179.186 32.1566C179.152 31.9365 179.094 31.741 179.01 31.5688C178.927 31.3942 178.807 31.2269 178.653 31.0646C178.452 30.8518 178.182 30.6821 177.838 30.5567C177.495 30.4313 177.076 30.3649 176.579 30.3624C176.284 30.3649 176.024 30.3895 175.798 30.435C175.574 30.4792 175.384 30.5346 175.231 30.5924C175.08 30.6526 174.965 30.7055 174.887 30.751C174.81 30.7965 174.77 30.8211 174.77 30.8223L174.531 32.0484C174.531 32.0435 174.569 32.0115 174.644 31.9525C174.718 31.891 174.828 31.8209 174.977 31.7373C175.126 31.6573 175.309 31.5836 175.528 31.5208C175.748 31.4569 176.001 31.4175 176.291 31.4102C176.654 31.4114 176.947 31.452 177.168 31.5331C177.389 31.6106 177.549 31.7201 177.648 31.8566C177.739 31.9734 177.799 32.0927 177.832 32.2144C177.866 32.3374 177.884 32.4542 177.886 32.5674C177.889 32.6805 177.889 32.7789 177.886 32.865V33.2216C177.884 33.2216 177.851 33.2154 177.782 33.2056C177.712 33.1945 177.62 33.1859 177.501 33.1749C177.382 33.165 177.248 33.1589 177.095 33.1589C176.833 33.1589 176.57 33.1749 176.305 33.213C176.039 33.2499 175.783 33.3114 175.537 33.3962C175.292 33.4798 175.065 33.5954 174.859 33.7356C174.652 33.8758 174.475 34.0504 174.33 34.257C174.214 34.4292 174.127 34.5965 174.07 34.7649C174.01 34.9309 173.974 35.0822 173.955 35.2199C173.933 35.3589 173.926 35.472 173.927 35.5594C173.926 35.7032 173.941 35.8656 173.978 36.0439C174.01 36.221 174.07 36.4017 174.153 36.58C174.237 36.7608 174.353 36.9293 174.498 37.083C174.649 37.2367 174.834 37.3622 175.06 37.4606C175.284 37.5589 175.557 37.6143 175.876 37.6266C176.215 37.6327 176.517 37.5946 176.783 37.511C177.049 37.4286 177.281 37.3118 177.478 37.1593C177.676 37.0043 177.84 36.8248 177.975 36.6182V37.0265C177.972 37.0929 177.977 37.1593 177.988 37.2269C177.998 37.297 178.027 37.356 178.075 37.4101C178.115 37.4519 178.165 37.4802 178.227 37.4962C178.287 37.511 178.343 37.5196 178.397 37.522C178.452 37.5245 178.492 37.5245 178.515 37.5245H179.232ZM172.752 34.091V28.091H171.206V34.091C171.207 34.305 171.201 34.5251 171.189 34.7514C171.177 34.974 171.147 35.1904 171.101 35.397C171.056 35.6061 170.986 35.7905 170.891 35.9541C170.759 36.1533 170.589 36.3058 170.384 36.4103C170.177 36.5136 169.936 36.5678 169.659 36.5678C169.454 36.5653 169.263 36.5444 169.086 36.5026C168.908 36.4632 168.75 36.414 168.614 36.3599C168.479 36.3058 168.37 36.2579 168.294 36.2111C168.214 36.1669 168.172 36.141 168.163 36.1336L168.503 37.4987C168.503 37.5011 168.537 37.5184 168.604 37.5516C168.671 37.586 168.765 37.6266 168.89 37.6721C169.016 37.7163 169.169 37.7569 169.347 37.7914C169.523 37.8246 169.724 37.8418 169.948 37.843C170.036 37.8455 170.155 37.8418 170.305 37.8307C170.455 37.8209 170.624 37.795 170.805 37.7545C170.987 37.7139 171.17 37.6499 171.354 37.5626C171.537 37.4753 171.706 37.356 171.859 37.2048C172.016 37.0547 172.151 36.8887 172.263 36.7055C172.377 36.5223 172.469 36.3095 172.542 36.0697C172.613 35.8299 172.666 35.5483 172.702 35.2249C172.735 34.9014 172.752 34.5227 172.752 34.091ZM212.927 37.5245V32.8391C212.93 32.6264 212.919 32.4161 212.896 32.212C212.875 32.0078 212.831 31.8111 212.766 31.6229C212.7 31.436 212.603 31.2564 212.475 31.0904C212.303 30.8482 212.076 30.6711 211.794 30.5567C211.511 30.4436 211.183 30.387 210.804 30.3895C210.508 30.3931 210.253 30.435 210.032 30.5186C209.812 30.601 209.63 30.703 209.479 30.8248C209.331 30.9441 209.215 31.0634 209.131 31.1802C209.048 31.297 208.993 31.3905 208.968 31.4606V30.542H207.623V37.5245H208.968V33.2216C208.966 33.0765 208.976 32.9154 208.997 32.7444C209.016 32.571 209.06 32.4001 209.127 32.2329C209.194 32.0644 209.297 31.9131 209.433 31.7803C209.55 31.6684 209.68 31.586 209.828 31.527C209.972 31.4655 210.145 31.436 210.351 31.436C210.651 31.4372 210.885 31.4864 211.057 31.5799C211.229 31.6746 211.352 31.8012 211.431 31.9611C211.511 32.1197 211.56 32.2993 211.58 32.4973C211.602 32.6953 211.611 32.8957 211.609 33.1072V37.5245H212.927ZM204.738 35.4438C204.736 35.6135 204.696 35.7647 204.617 35.8951C204.543 36.0267 204.438 36.1398 204.309 36.2345C204.179 36.328 204.031 36.4054 203.87 36.4645C203.781 36.5026 203.687 36.5284 203.594 36.5456C203.5 36.5616 203.42 36.5678 203.354 36.5678C203.13 36.5678 202.927 36.5284 202.745 36.4485C202.566 36.3673 202.421 36.2431 202.313 36.0746C202.205 35.9037 202.151 35.686 202.148 35.4179C202.148 35.3515 202.152 35.2802 202.158 35.204C202.168 35.1252 202.18 35.0552 202.199 34.9974C202.263 34.7846 202.376 34.6112 202.543 34.4772C202.705 34.3431 202.909 34.246 203.153 34.1833C203.398 34.1205 203.675 34.091 203.983 34.091C204.125 34.091 204.25 34.0959 204.363 34.1107C204.478 34.1218 204.569 34.1353 204.636 34.1476C204.702 34.1587 204.736 34.1648 204.738 34.1673V35.4438ZM206.082 37.5245V32.9424C206.085 32.6375 206.068 32.3755 206.036 32.1566C206.004 31.9365 205.944 31.741 205.86 31.5688C205.777 31.3942 205.657 31.2269 205.505 31.0646C205.303 30.8518 205.034 30.6821 204.69 30.5567C204.346 30.4313 203.927 30.3649 203.431 30.3624C203.135 30.3649 202.875 30.3895 202.648 30.435C202.424 30.4792 202.234 30.5346 202.082 30.5924C201.93 30.6526 201.815 30.7055 201.738 30.751C201.66 30.7965 201.62 30.8211 201.62 30.8223L201.382 32.0484C201.382 32.0435 201.419 32.0115 201.496 31.9525C201.568 31.891 201.68 31.8209 201.828 31.7373C201.978 31.6573 202.158 31.5836 202.378 31.5208C202.599 31.4569 202.852 31.4175 203.141 31.4102C203.503 31.4114 203.798 31.452 204.019 31.5331C204.24 31.6106 204.401 31.7201 204.499 31.8566C204.59 31.9734 204.65 32.0927 204.684 32.2144C204.717 32.3374 204.736 32.4542 204.738 32.5674C204.74 32.6805 204.74 32.7789 204.738 32.865V33.2216C204.736 33.2216 204.702 33.2154 204.633 33.2056C204.564 33.1945 204.472 33.1859 204.352 33.1749C204.232 33.165 204.099 33.1589 203.947 33.1589C203.684 33.1589 203.42 33.1749 203.156 33.213C202.891 33.2499 202.635 33.3114 202.389 33.3962C202.142 33.4798 201.916 33.5954 201.71 33.7356C201.503 33.8758 201.327 34.0504 201.181 34.257C201.066 34.4292 200.978 34.5965 200.921 34.7649C200.862 34.9309 200.825 35.0822 200.806 35.2199C200.785 35.3589 200.777 35.472 200.779 35.5594C200.777 35.7032 200.793 35.8656 200.827 36.0439C200.862 36.221 200.921 36.4017 201.004 36.58C201.088 36.7608 201.204 36.9293 201.35 37.083C201.499 37.2367 201.686 37.3622 201.912 37.4606C202.135 37.5589 202.408 37.6143 202.727 37.6266C203.066 37.6327 203.368 37.5946 203.634 37.511C203.901 37.4286 204.133 37.3118 204.329 37.1593C204.527 37.0043 204.692 36.8248 204.826 36.6182V37.0265C204.823 37.0929 204.828 37.1593 204.838 37.2269C204.85 37.297 204.878 37.356 204.926 37.4101C204.966 37.4519 205.016 37.4802 205.077 37.4962C205.137 37.511 205.195 37.5196 205.248 37.522C205.303 37.5245 205.344 37.5245 205.366 37.5245H206.082ZM248 28.0517H246.693V37.5245H248V28.0517ZM243.682 35.4438C243.68 35.6135 243.64 35.7647 243.562 35.8951C243.487 36.0267 243.382 36.1398 243.252 36.2345C243.123 36.328 242.976 36.4054 242.815 36.4645C242.726 36.5026 242.632 36.5284 242.539 36.5456C242.443 36.5616 242.363 36.5678 242.299 36.5678C242.075 36.5678 241.872 36.5284 241.689 36.4485C241.51 36.3673 241.365 36.2431 241.258 36.0746C241.15 35.9037 241.094 35.686 241.092 35.4179C241.092 35.3515 241.097 35.2802 241.103 35.204C241.111 35.1252 241.124 35.0552 241.143 34.9974C241.208 34.7846 241.321 34.6112 241.486 34.4772C241.65 34.3431 241.854 34.246 242.098 34.1833C242.343 34.1205 242.62 34.091 242.928 34.091C243.068 34.091 243.193 34.0959 243.307 34.1107C243.422 34.1218 243.513 34.1353 243.579 34.1476C243.646 34.1587 243.68 34.1648 243.682 34.1673V35.4438ZM245.026 37.5245V32.9424C245.029 32.6375 245.013 32.3755 244.981 32.1566C244.946 31.9365 244.888 31.741 244.805 31.5688C244.721 31.3942 244.601 31.2269 244.449 31.0646C244.248 30.8518 243.978 30.6821 243.634 30.5567C243.29 30.4313 242.871 30.3649 242.374 30.3624C242.08 30.3649 241.82 30.3895 241.592 30.435C241.369 30.4792 241.178 30.5346 241.025 30.5924C240.875 30.6526 240.759 30.7055 240.682 30.751C240.604 30.7965 240.565 30.8211 240.565 30.8223L240.326 32.0484C240.326 32.0435 240.364 32.0115 240.438 31.9525C240.512 31.891 240.623 31.8209 240.772 31.7373C240.92 31.6573 241.103 31.5836 241.323 31.5208C241.542 31.4569 241.796 31.4175 242.085 31.4102C242.448 31.4114 242.741 31.452 242.963 31.5331C243.183 31.6106 243.344 31.7201 243.442 31.8566C243.533 31.9734 243.594 32.0927 243.628 32.2144C243.662 32.3374 243.68 32.4542 243.682 32.5674C243.685 32.6805 243.685 32.7789 243.682 32.865V33.2216C243.68 33.2216 243.646 33.2154 243.577 33.2056C243.508 33.1945 243.416 33.1859 243.297 33.1749C243.177 33.165 243.043 33.1589 242.89 33.1589C242.627 33.1589 242.363 33.1749 242.1 33.213C241.834 33.2499 241.579 33.3114 241.334 33.3962C241.086 33.4798 240.861 33.5954 240.654 33.7356C240.448 33.8758 240.271 34.0504 240.125 34.257C240.01 34.4292 239.922 34.5965 239.865 34.7649C239.806 34.9309 239.769 35.0822 239.749 35.2199C239.729 35.3589 239.72 35.472 239.721 35.5594C239.72 35.7032 239.737 35.8656 239.773 36.0439C239.806 36.221 239.865 36.4017 239.948 36.58C240.033 36.7608 240.148 36.9293 240.294 37.083C240.443 37.2367 240.63 37.3622 240.856 37.4606C241.08 37.5589 241.352 37.6143 241.67 37.6266C242.01 37.6327 242.313 37.5946 242.578 37.511C242.844 37.4286 243.077 37.3118 243.273 37.1593C243.47 37.0043 243.636 36.8248 243.77 36.6182V37.0265C243.768 37.0929 243.773 37.1593 243.783 37.2269C243.793 37.297 243.823 37.356 243.871 37.4101C243.91 37.4519 243.961 37.4802 244.021 37.4962C244.082 37.511 244.139 37.5196 244.193 37.522C244.248 37.5245 244.288 37.5245 244.311 37.5245H245.026ZM238.383 30.542H237.051V37.5245H238.383V30.542ZM238.496 28.7539C238.495 28.6186 238.461 28.4981 238.392 28.3973C238.323 28.2964 238.231 28.2177 238.111 28.1624C237.991 28.107 237.857 28.0775 237.704 28.0775C237.552 28.08 237.418 28.112 237.302 28.1759C237.185 28.2386 237.094 28.3222 237.028 28.4243C236.961 28.5264 236.927 28.6371 236.925 28.7539C236.925 28.8904 236.955 29.0134 237.014 29.1204C237.071 29.2286 237.158 29.3122 237.272 29.3737C237.388 29.4352 237.532 29.4671 237.704 29.4696C237.861 29.4671 237.997 29.4352 238.117 29.3737C238.234 29.3122 238.326 29.2286 238.394 29.1204C238.461 29.0134 238.495 28.8904 238.496 28.7539ZM235.762 35.5458C235.758 35.2064 235.684 34.9162 235.538 34.6739C235.394 34.4292 235.196 34.2201 234.947 34.0443C234.698 33.8684 234.418 33.7135 234.103 33.5794C233.95 33.5167 233.793 33.4479 233.631 33.3753C233.472 33.304 233.323 33.2216 233.185 33.1294C233.047 33.0371 232.936 32.9314 232.852 32.8121C232.766 32.6903 232.721 32.5514 232.72 32.3927C232.721 32.1099 232.818 31.8922 233.005 31.741C233.194 31.5897 233.46 31.5135 233.8 31.5122C234.076 31.5073 234.315 31.5331 234.52 31.5836C234.725 31.6377 234.896 31.6992 235.035 31.7692C235.171 31.8418 235.276 31.9057 235.345 31.9611C235.414 32.0164 235.448 32.0435 235.448 32.0484L235.259 30.8986C235.259 30.8973 235.229 30.8715 235.167 30.8248C235.104 30.7756 235.004 30.7215 234.866 30.6612C234.727 30.601 234.545 30.5481 234.321 30.5051C234.097 30.462 233.822 30.446 233.5 30.4522C233.2 30.4522 232.919 30.4915 232.657 30.5752C232.397 30.6563 232.169 30.7768 231.971 30.9392C231.772 31.099 231.617 31.297 231.507 31.5356C231.397 31.7717 231.34 32.0435 231.337 32.3534C231.34 32.6731 231.397 32.9437 231.502 33.1699C231.61 33.3925 231.751 33.5819 231.928 33.7381C232.104 33.8918 232.299 34.0271 232.511 34.1402C232.721 34.2497 232.935 34.3517 233.143 34.4452C233.355 34.5423 233.55 34.637 233.725 34.7391C233.902 34.8412 234.045 34.958 234.15 35.092C234.258 35.2261 234.315 35.3896 234.316 35.5852C234.316 35.9037 234.218 36.1373 234.021 36.2898C233.824 36.4411 233.524 36.5186 233.122 36.5161C232.881 36.5112 232.646 36.4792 232.419 36.4165C232.192 36.3525 231.984 36.28 231.802 36.1976C231.62 36.114 231.474 36.0414 231.364 35.9775C231.257 35.9135 231.201 35.8828 231.199 35.8779L231.387 37.2048C231.475 37.2589 231.601 37.3228 231.767 37.3954C231.934 37.4667 232.149 37.5294 232.408 37.5823C232.668 37.6327 232.982 37.6561 233.349 37.6524C233.702 37.6524 234.032 37.5995 234.339 37.4901C234.645 37.3843 234.918 37.2257 235.159 37.0129C235.343 36.8543 235.489 36.6514 235.597 36.4054C235.705 36.1582 235.759 35.8705 235.762 35.5458ZM228.842 34.091C228.842 34.5842 228.79 35.0133 228.684 35.3835C228.58 35.7561 228.418 36.0439 228.204 36.2517C227.987 36.4583 227.714 36.5641 227.383 36.5678C227.009 36.569 226.702 36.4817 226.466 36.3058C226.231 36.1287 226.06 35.8594 225.95 35.4929C225.84 35.1265 225.786 34.6579 225.788 34.091C225.786 33.7442 225.804 33.4097 225.846 33.0949C225.887 32.7789 225.964 32.4948 226.076 32.2464C226.189 31.9968 226.351 31.8012 226.563 31.6573C226.771 31.5122 227.046 31.4372 227.383 31.436C227.649 31.4421 227.869 31.4987 228.047 31.6057C228.224 31.7114 228.366 31.8541 228.474 32.0349C228.58 32.2144 228.66 32.4186 228.711 32.6436C228.766 32.8723 228.802 33.1072 228.819 33.3556C228.836 33.604 228.844 33.8475 228.842 34.091ZM230.262 34.0652C230.265 33.6803 230.234 33.3077 230.174 32.9498C230.113 32.5907 230.018 32.2575 229.881 31.95C229.745 31.6438 229.567 31.3733 229.342 31.1408C229.118 30.9096 228.842 30.7289 228.515 30.5961C228.188 30.4657 227.803 30.3944 227.359 30.3895C226.918 30.3907 226.535 30.4559 226.202 30.585C225.872 30.7153 225.588 30.8924 225.356 31.1249C225.121 31.3536 224.932 31.6241 224.787 31.9328C224.641 32.2415 224.535 32.576 224.467 32.9375C224.4 33.2991 224.368 33.6754 224.368 34.0652C224.365 34.6001 224.417 35.0847 224.526 35.52C224.633 35.9566 224.802 36.3316 225.037 36.6452C225.272 36.9588 225.582 37.2011 225.964 37.3696C226.345 37.5405 226.81 37.6241 227.359 37.6266C227.817 37.629 228.228 37.5405 228.586 37.356C228.947 37.1765 229.25 36.9195 229.499 36.5936C229.746 36.264 229.938 35.8865 230.067 35.4536C230.198 35.0232 230.262 34.5608 230.262 34.0652ZM223.405 34.8055C223.405 34.5005 223.359 34.2275 223.271 33.984C223.181 33.7405 223.055 33.5204 222.889 33.3249C222.714 33.1072 222.513 32.9178 222.286 32.7592C222.06 32.6006 221.824 32.4604 221.577 32.3399C221.327 32.2181 221.081 32.1025 220.84 31.9992C220.597 31.8935 220.374 31.7865 220.164 31.6758C219.957 31.5663 219.781 31.4446 219.633 31.3069C219.546 31.2146 219.479 31.1261 219.429 31.0462C219.379 30.9638 219.344 30.8777 219.324 30.7904C219.303 30.703 219.294 30.6071 219.294 30.5026C219.293 30.3267 219.332 30.1521 219.412 29.9775C219.493 29.8029 219.63 29.6491 219.822 29.52C219.954 29.4315 220.124 29.3638 220.337 29.3183C220.547 29.2728 220.803 29.2532 221.104 29.2532C221.264 29.2532 221.418 29.263 221.569 29.2864C221.722 29.3073 221.865 29.3331 221.997 29.3663C222.194 29.4093 222.359 29.4561 222.493 29.504C222.628 29.552 222.729 29.5975 222.803 29.6369C222.878 29.6787 222.923 29.7045 222.94 29.7242L222.625 28.3714C222.624 28.3628 222.587 28.3395 222.513 28.3038C222.439 28.2644 222.324 28.2226 222.17 28.1759C222.016 28.1316 221.815 28.091 221.569 28.0542C221.322 28.0197 221.024 28.0037 220.677 28C220.409 27.9988 220.143 28.0222 219.883 28.0714C219.624 28.1206 219.372 28.1993 219.133 28.3099C218.895 28.4194 218.671 28.567 218.465 28.7539C218.281 28.9162 218.134 29.0933 218.02 29.2802C217.908 29.4671 217.825 29.6614 217.773 29.8582C217.724 30.0562 217.698 30.2542 217.698 30.4522C217.696 30.6748 217.719 30.8949 217.764 31.1052C217.807 31.3179 217.882 31.5159 217.988 31.7041C218.111 31.9131 218.264 32.0951 218.45 32.2513C218.637 32.405 218.845 32.5452 219.07 32.6694C219.299 32.7924 219.535 32.9117 219.779 33.0261C220.024 33.1417 220.266 33.2634 220.505 33.3913C220.745 33.5204 220.97 33.6692 221.179 33.8352C221.314 33.9348 221.425 34.0394 221.515 34.1464C221.606 34.2509 221.672 34.3702 221.717 34.4993C221.759 34.6284 221.784 34.7772 221.784 34.9457C221.784 35.2052 221.733 35.4241 221.632 35.6061C221.533 35.7856 221.38 35.9443 221.179 36.082C221.078 36.1582 220.955 36.216 220.815 36.2591C220.675 36.3009 220.534 36.3316 220.392 36.3501C220.248 36.3698 220.122 36.3796 220.009 36.3845C219.897 36.3894 219.818 36.3894 219.771 36.3894C219.628 36.3894 219.483 36.3796 219.34 36.3636C219.2 36.3452 219.062 36.3255 218.93 36.2984C218.642 36.2419 218.401 36.1865 218.206 36.1287C218.011 36.0746 217.862 36.0267 217.761 35.9885C217.661 35.9492 217.606 35.932 217.598 35.9283L217.937 37.2564C217.943 37.2589 217.988 37.2786 218.069 37.3204C218.151 37.3609 218.277 37.4089 218.447 37.4606C218.615 37.5134 218.832 37.5614 219.097 37.602C219.362 37.6413 219.678 37.6622 220.049 37.6647C220.332 37.6672 220.627 37.6438 220.932 37.5946C221.24 37.5466 221.54 37.4618 221.833 37.3425C222.125 37.222 222.389 37.0547 222.625 36.8371C222.863 36.6231 223.05 36.3476 223.19 36.0131C223.329 35.6823 223.4 35.279 223.405 34.8055Z" fill="#2B3078"/>
</svg>
